<svg xmlns:xlink="http://www.w3.org/1999/xlink" viewBox="0 0 1920 1080">
    <defs>
        <linearGradient id="prefix__Orchid" x1="258.97" y1="950.17" x2="1419.6" y2="950.17" gradientUnits="userSpaceOnUse">
            <stop offset="0" stop-color="#ff7bac"/>
            <stop offset=".22" stop-color="#ff7bac" stop-opacity=".76"/>
            <stop offset=".6" stop-color="#ff7bac" stop-opacity=".36"/>
            <stop offset=".87" stop-color="#ff7bac" stop-opacity=".1"/>
            <stop offset="1" stop-color="#ff7bac" stop-opacity="0"/>
        </linearGradient>
        <linearGradient id="prefix__linear-gradient-38" x1="71.58" y1="754.02" x2="1911.74" y2="322.41" xlink:href="#prefix__linear-gradient-8"/>
        <linearGradient id="prefix__Orchid-2" x1="65.15" y1="685.55" x2="240.72" y2="716.53" xlink:href="#prefix__Orchid"/>
        <linearGradient id="prefix__linear-gradient" x1="683.57" y1="234.2" x2="692.06" y2="1186.9" gradientUnits="userSpaceOnUse">
            <stop offset="0" stop-color="#662d91" stop-opacity=".9"/>
            <stop offset=".28" stop-color="#954599" stop-opacity=".62"/>
            <stop offset=".77" stop-color="#e16ca7" stop-opacity=".17"/>
            <stop offset="1" stop-color="#ff7bac" stop-opacity="0"/>
        </linearGradient>
        <linearGradient id="prefix__linear-gradient-2" x1="611.91" y1="334.39" x2="83.97" y2="975.56" gradientUnits="userSpaceOnUse">
            <stop offset="0" stop-color="#1b1464"/>
            <stop offset=".09" stop-color="#322b73" stop-opacity=".9"/>
            <stop offset=".71" stop-color="#c5c3d8" stop-opacity=".25"/>
            <stop offset="1" stop-color="#fff" stop-opacity="0"/>
        </linearGradient>
        <linearGradient id="prefix__linear-gradient-3" x1="539.55" y1="494.65" x2="246.76" y2="731.75" gradientUnits="userSpaceOnUse">
            <stop offset="0" stop-color="#662d91" stop-opacity=".64"/>
            <stop offset=".03" stop-color="#682f92" stop-opacity=".62"/>
            <stop offset=".69" stop-color="#8e66a5" stop-opacity=".17"/>
            <stop offset="1" stop-color="#9d7bac" stop-opacity="0"/>
        </linearGradient>
        <linearGradient id="prefix__linear-gradient-4" x1="612.7" y1="309.72" x2="402.38" y2="310.32" gradientUnits="userSpaceOnUse">
            <stop offset=".34" stop-color="#dbc747"/>
            <stop offset=".4" stop-color="#d4be52" stop-opacity=".89"/>
            <stop offset=".7" stop-color="#b79b82" stop-opacity=".41"/>
            <stop offset=".9" stop-color="#a484a0" stop-opacity=".12"/>
            <stop offset="1" stop-color="#9d7bac" stop-opacity="0"/>
        </linearGradient>
        <linearGradient id="prefix__linear-gradient-5" x1="1103.69" y1="805.79" x2="1233.34" y2="1094.28" xlink:href="#prefix__linear-gradient"/>
        <linearGradient id="prefix__linear-gradient-6" x1="43.68" y1="445.47" x2="513.4" y2="468.09" gradientUnits="userSpaceOnUse">
            <stop offset="0" stop-color="#2e3192" stop-opacity=".64"/>
            <stop offset=".03" stop-color="#323493" stop-opacity=".62"/>
            <stop offset=".69" stop-color="#7f67a5" stop-opacity=".17"/>
            <stop offset="1" stop-color="#9d7bac" stop-opacity="0"/>
        </linearGradient>
        <linearGradient id="prefix__linear-gradient-7" x1="259" y1="560.8" x2="1170" y2="560.8" gradientUnits="userSpaceOnUse">
            <stop offset="0" stop-color="#dbc747"/>
            <stop offset=".1" stop-color="#d4be52" stop-opacity=".89"/>
            <stop offset=".55" stop-color="#b79b82" stop-opacity=".41"/>
            <stop offset=".86" stop-color="#a484a0" stop-opacity=".12"/>
            <stop offset="1" stop-color="#9d7bac" stop-opacity="0"/>
        </linearGradient>
        <linearGradient id="prefix__linear-gradient-8" x1="99.62" y1="873.59" x2="1939.79" y2="441.98" gradientUnits="userSpaceOnUse">
            <stop offset="0" stop-color="#ff7bac"/>
            <stop offset=".01" stop-color="#ed1e79" stop-opacity=".7"/>
            <stop offset=".42" stop-color="#f54890" stop-opacity=".38"/>
            <stop offset=".82" stop-color="#fc6da4" stop-opacity=".11"/>
            <stop offset="1" stop-color="#ff7bac" stop-opacity="0"/>
        </linearGradient>
        <linearGradient id="prefix__linear-gradient-9" x1="20.52" y1="536.34" x2="1860.69" y2="104.73" xlink:href="#prefix__linear-gradient-8"/>
        <linearGradient id="prefix__linear-gradient-10" x1="61.46" y1="710.87" x2="1901.62" y2="279.26" xlink:href="#prefix__linear-gradient-8"/>
        <linearGradient id="prefix__linear-gradient-11" x1="21.77" y1="541.68" x2="1861.94" y2="110.07" xlink:href="#prefix__linear-gradient-8"/>
        <linearGradient id="prefix__linear-gradient-12" x1="42.07" y1="628.22" x2="1882.24" y2="196.61" xlink:href="#prefix__linear-gradient-8"/>
        <linearGradient id="prefix__linear-gradient-13" x1="1118.9" y1="290.73" x2="1842.52" y2="290.73" xlink:href="#prefix__linear-gradient-8"/>
        <linearGradient id="prefix__linear-gradient-14" x1="1119.38" y1="279.73" x2="1842.37" y2="279.73" xlink:href="#prefix__linear-gradient-8"/>
        <linearGradient id="prefix__linear-gradient-15" x1="24.82" y1="554.66" x2="1864.98" y2="123.05" xlink:href="#prefix__linear-gradient-8"/>
        <linearGradient id="prefix__linear-gradient-16" x1="1298.71" y1="232.86" x2="1502.71" y2="232.86" xlink:href="#prefix__linear-gradient-8"/>
        <linearGradient id="prefix__linear-gradient-17" x1="1298.71" y1="230.23" x2="1502.71" y2="230.23" xlink:href="#prefix__linear-gradient-8"/>
        <linearGradient id="prefix__linear-gradient-18" x1="53.92" y1="678.75" x2="1894.09" y2="247.14" xlink:href="#prefix__linear-gradient-8"/>
        <linearGradient id="prefix__linear-gradient-19" x1="1400.71" y1="339.86" x2="1604.71" y2="339.86" xlink:href="#prefix__linear-gradient-8"/>
        <linearGradient id="prefix__linear-gradient-20" x1="1400.71" y1="337.23" x2="1604.71" y2="337.23" xlink:href="#prefix__linear-gradient-8"/>
        <linearGradient id="prefix__linear-gradient-21" x1="1388.32" y1="155.47" x2="1525.71" y2="155.47" xlink:href="#prefix__linear-gradient-8"/>
        <linearGradient id="prefix__linear-gradient-22" x1="12.9" y1="503.84" x2="1853.07" y2="72.23" xlink:href="#prefix__linear-gradient-8"/>
        <linearGradient id="prefix__linear-gradient-23" x1="1388.32" y1="163.84" x2="1525.71" y2="163.84" xlink:href="#prefix__linear-gradient-8"/>
        <linearGradient id="prefix__linear-gradient-24" x1="1388.32" y1="155.23" x2="1525.71" y2="155.23" xlink:href="#prefix__linear-gradient-8"/>
        <linearGradient id="prefix__linear-gradient-25" x1="72.29" y1="757.05" x2="1912.45" y2="325.44" xlink:href="#prefix__linear-gradient-8"/>
        <linearGradient id="prefix__linear-gradient-26" x1="1682.71" y1="370.86" x2="1861.81" y2="370.86" xlink:href="#prefix__linear-gradient-8"/>
        <linearGradient id="prefix__linear-gradient-27" x1="1682.71" y1="368.23" x2="1861.81" y2="368.23" xlink:href="#prefix__linear-gradient-8"/>
        <linearGradient id="prefix__linear-gradient-28" x1="34.28" y1="595" x2="1874.45" y2="163.39" xlink:href="#prefix__linear-gradient-8"/>
        <linearGradient id="prefix__linear-gradient-29" x1="1630.71" y1="199.86" x2="1805.32" y2="199.86" xlink:href="#prefix__linear-gradient-8"/>
        <linearGradient id="prefix__linear-gradient-30" x1="1630.71" y1="197.23" x2="1805.32" y2="197.23" xlink:href="#prefix__linear-gradient-8"/>
        <linearGradient id="prefix__linear-gradient-31" x1="743.04" y1="498.3" x2="1966.39" y2="494.03" gradientUnits="userSpaceOnUse">
            <stop offset="0" stop-color="#d4145a"/>
            <stop offset=".07" stop-color="#da2366" stop-opacity=".85"/>
            <stop offset=".19" stop-color="#e43a78" stop-opacity=".63"/>
            <stop offset=".32" stop-color="#ec4e88" stop-opacity=".44"/>
            <stop offset=".44" stop-color="#f35e95" stop-opacity=".28"/>
            <stop offset=".57" stop-color="#f86b9f" stop-opacity=".16"/>
            <stop offset=".71" stop-color="#fc74a6" stop-opacity=".07"/>
            <stop offset=".85" stop-color="#fe79ab" stop-opacity=".02"/>
            <stop offset="1" stop-color="#ff7bac" stop-opacity="0"/>
        </linearGradient>
        <linearGradient id="prefix__linear-gradient-32" x1="82.41" y1="800.21" x2="1922.58" y2="368.61" xlink:href="#prefix__linear-gradient-8"/>
        <linearGradient id="prefix__linear-gradient-33" x1="743.13" y1="524.81" x2="1966.49" y2="520.54" xlink:href="#prefix__linear-gradient-31"/>
        <linearGradient id="prefix__linear-gradient-34" x1="104.08" y1="892.61" x2="1944.25" y2="461" xlink:href="#prefix__linear-gradient-8"/>
        <linearGradient id="prefix__linear-gradient-35" x1="743.14" y1="526.26" x2="1966.49" y2="521.99" xlink:href="#prefix__linear-gradient-31"/>
        <linearGradient id="prefix__linear-gradient-36" x1="117.68" y1="950.59" x2="1957.85" y2="518.99" xlink:href="#prefix__linear-gradient-8"/>
        <linearGradient id="prefix__linear-gradient-37" x1="743.2" y1="544.78" x2="1966.56" y2="540.51" xlink:href="#prefix__linear-gradient-31"/>
        <linearGradient id="prefix__linear-gradient-79" x1="758.68" y1="451.93" x2="824.84" y2="451.93" gradientTransform="rotate(-75.81 791.809 451.925)" xlink:href="#prefix__linear-gradient-78"/>
        <linearGradient id="prefix__linear-gradient-39" x1="743.13" y1="524.08" x2="1966.48" y2="519.81" xlink:href="#prefix__linear-gradient-31"/>
        <linearGradient id="prefix__linear-gradient-40" x1="60.62" y1="707.31" x2="1900.79" y2="275.71" xlink:href="#prefix__linear-gradient-8"/>
        <linearGradient id="prefix__linear-gradient-41" x1="743.12" y1="522.65" x2="1966.48" y2="518.38" xlink:href="#prefix__linear-gradient-31"/>
        <linearGradient id="prefix__linear-gradient-42" x1="93.25" y1="846.41" x2="1933.42" y2="414.8" xlink:href="#prefix__linear-gradient-8"/>
        <linearGradient id="prefix__linear-gradient-43" x1="743.13" y1="525.54" x2="1966.49" y2="521.26" xlink:href="#prefix__linear-gradient-31"/>
        <linearGradient id="prefix__linear-gradient-44" x1="58.54" y1="698.45" x2="1898.71" y2="266.84" xlink:href="#prefix__linear-gradient-8"/>
        <linearGradient id="prefix__linear-gradient-45" x1="742.93" y1="466.09" x2="1966.28" y2="461.82" xlink:href="#prefix__linear-gradient-31"/>
        <linearGradient id="prefix__linear-gradient-46" x1="47.6" y1="651.8" x2="1887.77" y2="220.19" xlink:href="#prefix__linear-gradient-8"/>
        <linearGradient id="prefix__linear-gradient-47" x1="742.92" y1="464.86" x2="1966.28" y2="460.59" xlink:href="#prefix__linear-gradient-31"/>
        <linearGradient id="prefix__linear-gradient-48" x1="97.06" y1="862.65" x2="1937.22" y2="431.05" xlink:href="#prefix__linear-gradient-8"/>
        <linearGradient id="prefix__linear-gradient-49" x1="742.88" y1="451.44" x2="1966.23" y2="447.17" xlink:href="#prefix__linear-gradient-31"/>
        <linearGradient id="prefix__linear-gradient-50" x1="91.05" y1="837.04" x2="1931.22" y2="405.43" xlink:href="#prefix__linear-gradient-8"/>
        <linearGradient id="prefix__linear-gradient-51" x1="742.93" y1="468.26" x2="1966.29" y2="463.99" xlink:href="#prefix__linear-gradient-31"/>
        <linearGradient id="prefix__linear-gradient-52" x1="69.38" y1="744.64" x2="1909.55" y2="313.04" xlink:href="#prefix__linear-gradient-8"/>
        <linearGradient id="prefix__linear-gradient-53" x1="742.93" y1="466.81" x2="1966.28" y2="462.54" xlink:href="#prefix__linear-gradient-31"/>
        <linearGradient id="prefix__linear-gradient-54" x1="80.21" y1="790.84" x2="1920.38" y2="359.23" xlink:href="#prefix__linear-gradient-8"/>
        <linearGradient id="prefix__linear-gradient-55" x1="742.93" y1="467.54" x2="1966.29" y2="463.27" xlink:href="#prefix__linear-gradient-31"/>
        <linearGradient id="prefix__linear-gradient-56" x1="743.03" y1="495.59" x2="1966.38" y2="491.32" xlink:href="#prefix__linear-gradient-31"/>
        <linearGradient id="prefix__linear-gradient-57" x1="47.82" y1="652.74" x2="1887.99" y2="221.13" xlink:href="#prefix__linear-gradient-8"/>
        <linearGradient id="prefix__linear-gradient-58" x1="1163.98" y1="373.27" x2="1322.02" y2="372.72" xlink:href="#prefix__linear-gradient-31"/>
        <linearGradient id="prefix__linear-gradient-59" x1="124.36" y1="979.08" x2="1964.53" y2="547.47" xlink:href="#prefix__linear-gradient-8"/>
        <linearGradient id="prefix__linear-gradient-60" x1="1403.98" y1="661.27" x2="1562.02" y2="660.72" xlink:href="#prefix__linear-gradient-31"/>
        <linearGradient id="prefix__linear-gradient-61" x1="92.36" y1="842.64" x2="1932.53" y2="411.03" xlink:href="#prefix__linear-gradient-8"/>
        <linearGradient id="prefix__linear-gradient-62" x1="1011.98" y1="609.27" x2="1170.02" y2="608.72" xlink:href="#prefix__linear-gradient-31"/>
        <linearGradient id="prefix__linear-gradient-63" x1="72.74" y1="758.97" x2="1912.91" y2="327.37" xlink:href="#prefix__linear-gradient-8"/>
        <linearGradient id="prefix__linear-gradient-64" x1="1745.83" y1="352.71" x2="1903.87" y2="352.16" xlink:href="#prefix__linear-gradient-31"/>
        <linearGradient id="prefix__linear-gradient-65" x1="86.02" y1="815.58" x2="1926.18" y2="383.97" xlink:href="#prefix__linear-gradient-8"/>
        <linearGradient id="prefix__linear-gradient-66" x1="1746.04" y1="410.92" x2="1904.08" y2="410.37" xlink:href="#prefix__linear-gradient-31"/>
        <linearGradient id="prefix__linear-gradient-67" x1="1745.89" y1="368.22" x2="1903.93" y2="367.66" xlink:href="#prefix__linear-gradient-31"/>
        <linearGradient id="prefix__linear-gradient-68" x1="78.77" y1="784.68" x2="1918.94" y2="353.07" xlink:href="#prefix__linear-gradient-8"/>
        <linearGradient id="prefix__linear-gradient-69" x1="1682.71" y1="379.23" x2="1861.81" y2="379.23" xlink:href="#prefix__linear-gradient-8"/>
        <linearGradient id="prefix__linear-gradient-70" x1="1745.93" y1="379.45" x2="1903.97" y2="378.9" xlink:href="#prefix__linear-gradient-31"/>
        <linearGradient id="prefix__linear-gradient-72" x1="1745.89" y1="368.45" x2="1903.93" y2="367.9" xlink:href="#prefix__linear-gradient-31"/>
        <linearGradient id="prefix__linear-gradient-73" x1="795.82" y1="326.92" x2="953.86" y2="326.36" xlink:href="#prefix__linear-gradient-31"/>
        <linearGradient id="prefix__linear-gradient-74" x1="30.79" y1="580.11" x2="1870.96" y2="148.51" xlink:href="#prefix__linear-gradient-8"/>
        <linearGradient id="prefix__linear-gradient-75" x1="795.98" y1="373.44" x2="954.02" y2="372.88" xlink:href="#prefix__linear-gradient-31"/>
        <linearGradient id="prefix__linear-gradient-76" x1="117.88" y1="951.45" x2="1958.05" y2="519.84" xlink:href="#prefix__linear-gradient-8"/>
        <linearGradient id="prefix__linear-gradient-77" x1="112.5" y1="928.48" x2="1952.67" y2="496.88" xlink:href="#prefix__linear-gradient-8"/>
        <linearGradient id="prefix__linear-gradient-78" x1="610.43" y1="608.21" x2="822.74" y2="608.21" gradientUnits="userSpaceOnUse">
            <stop offset="0" stop-color="#333" stop-opacity=".9"/>
            <stop offset=".42" stop-color="#8f5369" stop-opacity=".49"/>
            <stop offset="1" stop-color="#ff7bac" stop-opacity="0"/>
        </linearGradient>
        <style>
            .prefix__cls-4{fill:#1a1a1a}.prefix__cls-15{fill:#603813}.prefix__cls-17{fill:#fbb03b}.prefix__cls-21{fill:#00a99d}.prefix__cls-30{fill:#399da4}.prefix__cls-46{fill:url(#prefix__linear-gradient-27)}.prefix__cls-96{fill:#666}
        </style>
    </defs>
    <g id="prefix__image">
        <path d="M259 953.2c1.93-18.18 110.65-31 540-14.2h126c-79.12-17.8-95.57-28-95-34 2.28-24.37 280 24.9 489-6 21.9-3.24 88-14 99 9 6.46 13.44-8.46 33-13 39-58 76.14-276.43 41.93-604 47-120.34 1.86-180.52 2.79-184 3-115.82 6.9-184 20.52-277-6-18.3-5.22-82.52-23.54-81-37.8z" fill="url(#prefix__Orchid)" id="prefix__shadow"/>
        <g id="prefix__wall">
            <path d="M190 446h42a20 20 0 0120 20v515h-82V466a20 20 0 0120-20z" fill="#1b1464"/>
            <path d="M189 442h42a20 20 0 0120 20v515h-82V462a20 20 0 0120-20z" fill="url(#prefix__Orchid-2)"/>
        </g>
        <g id="prefix__light">
            <path class="prefix__cls-4" d="M605.79 130.28l-49.42 12.6 3-40 25.2-6.42z"/>
            <path class="prefix__cls-4" d="M551.95 132.47h60a15 15 0 0115 15h-90a15 15 0 0115-15z" transform="rotate(-14.3 581.919 139.961)"/>
            <path d="M582.5 118.5l-234 30M348.5 148.5l-41 243M583.5 115.5l-195 60M307.5 391.5l81-216" style="fill:none;stroke:#1a1a1a;stroke-linecap:round;stroke-linejoin:round;stroke-width:7px"/>
            <circle cx="577.5" cy="118.5" r="3.5" stroke-miterlimit="10" stroke="#4d4d4d" stroke-width=".75" fill="#1a1a1a"/>
        </g>
        <g id="prefix__body">
            <path d="M352.69 343.5c-16.44 13.86-6.28 41.49-32.76 72a100 100 0 01-12.43 12q102.57 28.62 113 12 4.23-6.76-6.78-21c-3.25-7.31-15.07-36.36 1.13-62a58.13 58.13 0 0110.17-12c-43.43-13.43-62.89-8.95-72.33-1z" fill="#542b0b" id="prefix__neck"/>
            <path d="M1089.78 922.05c4.2 24.74 24.68 44.17 45.81 50.22a55.62 55.62 0 008.48 1.73c7.82-3 12.51-9.58 11.87-15.59a12 12 0 00-3.39-6.92 247 247 0 01-54.28-39.83c-3-2.88-5.79-5.77-8.49-8.66a58.34 58.34 0 000 19.05z" fill="#c1272d" id="prefix__sock"/>
            <path id="prefix__pants" d="M525.59 763.5c31-25.53 72.48-59.17 122.39-98 87.77-68.29 111-81.62 142.31-86 63.67-8.89 116.17 28.76 152.75 55 122.74 88 169 227.87 186 293l-33.21 27c-62.66-40.79-92.71-60.32-129-85C877.7 809 841.52 779.13 814 728.5c-3.39-6.24-6-11.51-7.59-15-7.69 34-33 124.75-113.85 188-67.39 52.74-134.4 55.89-222 60-118.76 5.57-181.66-29.19-197.34-53-9.37-14.23-15.18-31-15.18-31-5.57-19.68-7.26-35-7.59-47A208.65 208.65 0 01259 766c1.32-6.79 7.25-32.61 32.81-48a66.74 66.74 0 0129.41-10c12.7-1.06 21.36 2.18 40.73 9 44.57 15.69 44.67 12.7 56.57 18 20.55 9.14 20 12.35 32.48 15 16.58 3.53 24.27-.72 42 2a95 95 0 0132.59 11.5z" fill="#0071bc"/>
            <path id="prefix__pants-2" data-name="pants" d="M525.19 763.1c31-25.53 72.49-59.17 122.39-98 87.78-68.28 111-81.62 142.32-86 63.66-8.89 116.16 28.76 152.75 55 122.73 88 169.05 227.87 185.95 293l-33.2 27c-62.67-40.79-92.71-60.32-129-85-89.07-60.51-125.24-90.37-152.75-141-3.39-6.24-6-11.51-7.59-15-7.7 34-33 124.75-113.85 188-67.39 52.74-134.4 55.89-222 60-118.76 5.57-181.66-29.19-197.34-53-9.38-14.23-15.18-31-15.18-31-5.57-19.68-7.27-35-7.59-47a208 208 0 018.55-64.5c1.31-6.79 7.24-32.61 32.8-48a66.79 66.79 0 0129.42-10c12.69-1.05 21.36 2.18 40.73 9 44.56 15.69 44.66 12.7 56.56 18 20.55 9.14 20 12.35 32.48 15 16.58 3.53 24.27-.72 42 2a95.18 95.18 0 0132.55 11.5z" fill="url(#prefix__linear-gradient)"/>
            <g id="prefix__torso">
                <path d="M269.5 783.5c-20.16-21.66-18.62-47.6-17-116 2.83-119.61.63-147 17-196 14-41.92 27.66-58 44-67 28-15.4 59.06-7.73 70-5 42.11 10.5 66.17 39.7 76.5 52.5 10.72 13.29 30.69 38.05 32 72 .88 22.89-7.66 25.49-14 55-7.19 33.44-17.15 101.24 16 150a129.6 129.6 0 0020 23c-10.66 14.72-33.91 42.07-73 57-47.63 18.19-90.08 7-114.5.5-26.57-7.1-43.38-11.36-57-26z" fill="#fb8c3b"/>
                <path d="M279.63 481.44c-13.82 45.16-12 70.37-14.35 180.57-.72 33.08.48 70 .48 70a1.1 1.1 0 001.8 1l2.83-1.62a4.22 4.22 0 001.87-3l19-276.15c.07-1.1-.22-1.17-.65-.16-.01 0-7.06 16.55-10.98 29.36z" stroke="#f7751e" stroke-width="15" stroke-miterlimit="10" fill="none"/>
                <path d="M269.22 783.91c-20.15-21.66-18.61-47.6-17-116 2.83-119.61.63-147 17-196 14-41.92 27.66-58 44-67 28-15.4 59.07-7.72 70-5 42.11 10.5 66.18 39.7 76.5 52.5 10.72 13.29 30.69 38 32 72 .89 22.89-7.65 25.49-14 55-7.19 33.44-17.15 101.24 16 150a129.6 129.6 0 0020 23c-10.66 14.72-33.9 42.07-73 57-47.63 18.19-90.08 7-114.5.5-26.56-7.1-43.37-11.36-57-26z" fill="url(#prefix__linear-gradient-2)"/>
            </g>
            <g id="prefix__hands">
                <path d="M662.09 592.55c1.93-4.71 19.81-1.72 32.22 4.38 6.78 3.34 10 6.65 9.67 8.78a4.27 4.27 0 01-1.08 2.19 4.4 4.4 0 01-3.22 1.1c-2.79-.09-4.11-2.63-6.44-4.39-1.4-1.05-2.55-1.37-10.74-2.19-12.22-1.23-14.6-1-17.19-3.29-1.61-1.43-4.08-4.5-3.22-6.58z" fill="#6b3813"/>
                <path class="prefix__cls-15" d="M660 598c1.8-4.29 18.45-1.57 30 4 6.31 3 9.3 6.06 9 8a3.87 3.87 0 01-1 2 4.15 4.15 0 01-3 1c-2.6-.08-3.83-2.4-6-4-1.3-1-2.38-1.25-10-2-11.38-1.12-13.59-.92-16-3-1.5-1.3-3.8-4.1-3-6z"/>
                <path d="M654.65 602.6c1.8-4.3 18.44-1.57 30 4 6.31 3 9.29 6.06 9 8a4 4 0 01-1 2 4.16 4.16 0 01-3 1c-2.6-.08-3.83-2.4-6-4-1.3-1-2.38-1.25-10-2-11.38-1.12-13.6-.92-16-3-1.51-1.3-3.8-4.11-3-6z" fill="#733813"/>
            </g>
            <g id="prefix__arm">
                <path class="prefix__cls-17" d="M328.63 432.73c3.8-3.64 21.69-16.33 41.17-12.5 25.33 5 46.1 37.11 47.43 66.58 1.47 32.39-20.57 61.21-10.58 83a61.52 61.52 0 008.52 13.19c7.2 8.12 15.44 12.13 21.11 14.89 32 15.61 68.23 1.37 125.11-21.92 14.64-6 26.77-11.68 45.41-14.74 7.46-1.23 31.75-2.66 56.5 10.79a90.2 90.2 0 0113.83 9.26c-.23 3.12-.4 5.83-.51 8-.26 4.7-.29 7.05-.21 9.63.06 1.7.1 1.44.08 1.86-.21 5.33-5.42 8.19-8.49 12.32-1.87 2.51-3.8 6.63-3.61 13.56-34.08-11-57.8-8.12-73.26-3.3-13.13 4.1-22.41 7.7-54.44 22.18C497 663.51 464.44 661.2 430 658.75c-60.19-4.28-93.46-6.64-114.76-40.24-32.42-51.08-22.55-151.32 13.39-185.78z"/>
                <path d="M328.16 433c3.81-3.65 21.69-16.33 41.18-12.5 25.32 5 46.1 37.11 47.43 66.58 1.46 32.39-20.57 61.21-10.58 83a62 62 0 008.51 13.16c7.21 8.11 15.45 12.13 21.11 14.89 32 15.61 68.24 1.37 125.12-21.92 14.64-6 26.76-11.68 45.41-14.75 7.45-1.22 31.75-2.65 56.5 10.79a90.2 90.2 0 0113.83 9.26c-.23 3.13-.4 5.84-.52 8-.25 4.7-.29 7-.2 9.63 0 1.69.1 1.44.08 1.85-.21 5.34-5.42 8.19-8.5 12.32-1.87 2.52-3.79 6.64-3.6 13.57-34.09-11-57.8-8.13-73.27-3.3-13.13 4.09-22.41 7.69-54.43 22.18-39.74 18-72.26 15.67-106.72 13.22-60.2-4.28-93.46-6.64-114.77-40.24-32.39-51.08-22.52-151.32 13.42-185.74z" fill="url(#prefix__linear-gradient-3)"/>
            </g>
            <g id="prefix__head">
                <path class="prefix__cls-15" d="M306.41 341.1a76.3 76.3 0 016.76-78.49 74.39 74.39 0 0121.31-19.77c39-23.92 103.13-13.13 116.61 16 8.68 18.78-8 35.62 5.87 60.54 4.42 7.92 11.61 16.1 8.48 22.64-2.06 4.28-8.62 8-16.87 12.64-3.3 1.87-3.58 1.79-5 2.87-6.77 5.17-8 12.86-9.39 16.42-4.44 11.47-23.65 14.7-33.62 16.38-28.32 4.81-74.36-9-94.15-49.23z"/>
                <path d="M306.68 341a76.3 76.3 0 016.76-78.48 74.39 74.39 0 0121.31-19.77c39-23.93 103.13-13.14 116.62 16 8.67 18.77-8 35.62 5.87 60.54 4.41 7.92 11.61 16.1 8.47 22.63-2.06 4.28-8.61 8-16.86 12.64-3.31 1.87-3.59 1.79-5 2.88-6.77 5.17-8 12.86-9.39 16.42-4.44 11.46-23.64 14.69-33.61 16.37-28.33 4.77-74.38-9.03-94.17-49.23z" fill="url(#prefix__linear-gradient-4)"/>
            </g>
            <g id="prefix__shoe">
                <path class="prefix__cls-17" d="M1225.36 939.48c-.7 15.11-44 27.59-50.87 29.74-24.48 7.7-55.87 11.77-58.73 4.69-2.09-5.17 11.85-14.69 18.76-19.42 31.6-21.63 79.22-33 89.08-20.44a8.33 8.33 0 011.76 5.43z"/>
                <path d="M1225.79 939.37c-.7 15.12-44 27.59-50.87 29.75-24.48 7.69-55.87 11.76-58.73 4.69-2.09-5.17 11.85-14.7 18.76-19.43 31.6-21.63 79.22-33 89.08-20.43a8.27 8.27 0 011.76 5.42z" fill="url(#prefix__linear-gradient-5)"/>
            </g>
            <g id="prefix__hair">
                <path class="prefix__cls-21" d="M451 259c-.64 6.41-4.64 6.93-12 21-9.6 18.34-6.35 21.89-12 30-8.94 12.82-30.72 2.4-45 15-1.88 1.66-1.19 1.59-12 37-4.24 13.91-8.65 27.95-19 42a43.69 43.69 0 01-3.71 4.64C335.21 421.46 322.15 416.8 312 424c-13.15 9.33-12.43 32.44-12 43 .84 20.7 8.8 23.87 16 57 3.38 15.56 5.07 23.33 4 34-.51 5.11-3.43 34.08-23 47-24.27 16-49.55-8.85-68 7-11.59 10-5.28 22.92-23 47a118.47 118.47 0 01-18 19c-27.34 22.13-84.23 30.17-109 3-27.78-30.47-6.92-96.21 29-124 32.14-24.87 76.53-19.5 77-31 .36-8.75-25.39-10.81-48-39a90.47 90.47 0 01-13-21c-9-20.76-13.44-55.38 2-74 24.29-29.3 83.82-2.21 94-23 9.12-18.61-35.07-47.52-25-70 6.82-15.21 26.56-7.63 61-32 19.76-14 20.43-21.72 42-34a158.12 158.12 0 0142-16c12-2.75 43-8.55 73 2.29a37.08 37.08 0 014 1.71c14.85 7.25 35.53 22.76 34 38z"/>
                <path d="M434.14 257.79A77.78 77.78 0 01421 284a72.75 72.75 0 01-10.41 11c-1 .84-2 1.59-3 2.39s-2.09 1.47-3.14 2.21c-.53.36-1 .74-1.59 1.08l-1.67 1c-1.11.65-2.22 1.33-3.39 1.87a73.22 73.22 0 01-14.3 5.45c-4.79 1.32-9.37 2.34-13.19 3.72a23.63 23.63 0 00-9.31 6.08 17.74 17.74 0 00-1.85 2.18 11.47 11.47 0 00-.87 1.14l-.75 1.18a24.65 24.65 0 00-2.37 5.09c-1.21 3.67-1.65 8.14-2.3 13a63.85 63.85 0 01-3.45 14.9l-1.55 3.56c-.56 1.16-1.2 2.28-1.79 3.4l-.46.85-.52.79-1 1.6-1 1.58-1.16 1.54a32.29 32.29 0 01-11.93 9.74 93.79 93.79 0 00-12.34 6.76 71.75 71.75 0 00-10.59 9 93.58 93.58 0 00-9 10.68 90.35 90.35 0 00-7.34 11.75c-.51 1-1.09 2-1.55 3.07l-1.42 3.11c-.5 1-.85 2.11-1.28 3.16s-.86 2.08-1.17 3.17l-1 3.2c-.36 1.06-.55 2.16-.84 3.23a60.91 60.91 0 00-1.37 6.52 27.42 27.42 0 00-.38 3.25c-.09 1.08-.26 2.16-.32 3.24l-.08 3.19.11 3.1a39.45 39.45 0 003 11.95c1.62 4.09 3.67 8.51 5.5 13.11a142.62 142.62 0 014.86 14.13c.67 2.4 1.38 4.79 1.89 7.21l.84 3.63.71 3.63c.24 1.21.46 2.43.68 3.64l.58 3.54c.38 2.36.79 4.73 1.12 7.13.68 4.78 1.35 9.63 1.67 14.66A78.12 78.12 0 01302 554a41.56 41.56 0 01-5.4 15.95 38.42 38.42 0 01-5.24 6.68c-1 1-2 1.92-3.08 2.85s-2.18 1.71-3.34 2.42a48.67 48.67 0 01-14.53 6.33 70.26 70.26 0 01-7.48 1.51c-2.51.33-5 .57-7.48.66a97.48 97.48 0 01-29-3.19.7.7 0 01.19-1.38 137.17 137.17 0 0028-2.53 77.72 77.72 0 0012.92-3.87 43 43 0 0010.83-6.43c.82-.62 1.49-1.37 2.23-2s1.38-1.43 1.95-2.22a24 24 0 001.7-2.37c.52-.81 1-1.68 1.41-2.51a30.28 30.28 0 002.77-11.23 75.1 75.1 0 00-.58-12.91c-.56-4.46-1.25-9-2.06-13.66l-1.17-7-.6-3.5c-.22-1.13-.42-2.26-.62-3.39l-.59-3.39-.71-3.35c-.45-2.24-1-4.45-1.51-6.66-1.12-4.4-2.34-8.75-3.85-13.07s-3.19-8.68-4.82-13.54a50.89 50.89 0 01-2.92-15.9 87 87 0 01.11-4l.42-3.94c.18-1.29.45-2.56.69-3.83s.46-2.56.86-3.78a82.53 82.53 0 0113.11-27.13 135.94 135.94 0 0119.62-21.8c1.79-1.64 3.68-3.18 5.55-4.75l2.92-2.23c1-.71 2-1.44 3-2.12 2.05-1.34 4.14-2.65 6.28-3.81s4.27-2.29 6.27-3.42a23.58 23.58 0 009.28-9 42.13 42.13 0 004.87-12.3 56.66 56.66 0 001-13.27c-.06-4.63-.31-9.77.89-15.35l.55-2.07a15 15 0 01.66-2.06 28.34 28.34 0 011.79-4 24.67 24.67 0 012.25-3.67 29.4 29.4 0 012.66-3.35l1.47-1.58c.49-.52 1.09-1 1.64-1.45s1.11-1 1.7-1.4l1.83-1.23a29.74 29.74 0 013.82-2.11c.65-.34 1.3-.55 2-.82s1.31-.55 1.95-.74c5.19-1.76 10-2.5 14.44-3.53a73.87 73.87 0 0012.64-3.84c1-.37 2-.87 3-1.33s2-.93 2.94-1.48 2-1 2.9-1.61 1.9-1.17 2.83-1.78a78 78 0 0010.47-8.52 110.84 110.84 0 0017.43-21.79.71.71 0 011.28.58zM315.5 257.5a195.44 195.44 0 01-42 31.53 182.7 182.7 0 01-24.09 11.06c-4.12 1.58-8.31 2.94-12.27 4.44s-7.67 3.21-9.72 5.67a10.48 10.48 0 00-2.12 4.32 11.82 11.82 0 000 5 34.74 34.74 0 004.66 10.64c4.32 7.17 9.93 14.16 13.74 22.91a36.49 36.49 0 012.27 7 28.53 28.53 0 01.71 7.59 26 26 0 01-1.42 7.62 29.32 29.32 0 01-3.37 6.91 41.83 41.83 0 01-10.39 10.27 89.14 89.14 0 01-11.94 6.9c-2 1-4.05 1.91-6.05 2.8-1 .46-2 .91-3.09 1.35s-2.11.89-3.18 1.28a91.59 91.59 0 01-13.15 3.94 102.1 102.1 0 01-13.53 2c-4.53.33-9 .41-13.46.31s-8.78-.31-12.84-.17-7.7.8-9.48 2.72a8.54 8.54 0 00-2.13 3.88 17.43 17.43 0 00-.44 5.29 39.71 39.71 0 002.66 11.6A82.66 82.66 0 00157.43 456a65.81 65.81 0 008.66 9.07 111 111 0 0010.36 7.52 51 51 0 0110.31 8.77 44.57 44.57 0 017.18 11.41 53.78 53.78 0 013.8 12.74 65 65 0 01.79 13.12c-.65-8.69-2.72-17.29-6.83-24.76a44.26 44.26 0 00-7.49-10.13 46.94 46.94 0 00-10.21-7.55 109.71 109.71 0 01-11.18-7.19 71.58 71.58 0 01-9.93-9.28 85 85 0 01-8.16-10.8 81 81 0 01-6.42-12 47.36 47.36 0 01-3.67-13.68 24.45 24.45 0 01.49-7.7 16.26 16.26 0 014-7.5 15 15 0 011.67-1.51 18.48 18.48 0 011.86-1.21 19.28 19.28 0 013.86-1.56 34.68 34.68 0 017.32-1.13c4.67-.27 9-.13 13.32-.16s8.51-.12 12.68-.49a93.73 93.73 0 0012.29-1.98 84.64 84.64 0 0011.87-3.65q1.45-.54 2.88-1.17c1-.41 1.89-.81 2.89-1.28 2-.89 3.91-1.8 5.82-2.72a80.68 80.68 0 0010.72-6.11 33.52 33.52 0 008.19-7.94 20.44 20.44 0 002.41-4.78 17.22 17.22 0 001-5.17 19.5 19.5 0 00-.44-5.4c-.16-.91-.45-1.82-.69-2.74s-.6-1.84-1-2.75a50.44 50.44 0 00-2.59-5.49c-1-1.82-2-3.63-3.16-5.45-2.23-3.64-4.66-7.3-6.92-11.25a58.72 58.72 0 01-3.16-6.24 30.21 30.21 0 01-2.14-7.15 19.45 19.45 0 01.43-8 17.6 17.6 0 013.92-7.14 21.15 21.15 0 016.28-4.54 49.17 49.17 0 016.49-2.58c4.26-1.42 8.41-2.6 12.52-3.9a182.24 182.24 0 0024-9.42c15.69-7.32 30.3-16.88 44.05-27.63zM239.83 529.88a132.79 132.79 0 01-33.57 27 130.65 130.65 0 01-19.8 9.15 110.94 110.94 0 01-21.11 5.49c-7.14 1.18-14.33 1.61-21.38 2.15-3.53.26-7 .6-10.46 1.08a41.64 41.64 0 00-9.91 2.51 15.08 15.08 0 00-7.45 6 14.08 14.08 0 00-1.82 9.25 39.89 39.89 0 002.92 9.75c1.26 3.29 2.8 6.64 3.47 10.63a17 17 0 01-.1 6.35 15.54 15.54 0 01-2.79 6.06 16.92 16.92 0 01-5.07 4.4 24.74 24.74 0 01-5.88 2.29 75.31 75.31 0 01-11 1.66c-3.39.36-6.61.89-8.59 2a5.17 5.17 0 00-2 1.9 7.18 7.18 0 00-.91 3 20 20 0 001.16 8.24A49.55 49.55 0 0095 664.91a43 43 0 0014.84 11.45 43.72 43.72 0 0018.69 3.64 60.69 60.69 0 009.89-1 72.84 72.84 0 009.76-2.76 85.33 85.33 0 0018.49-9.58l.66.76a65 65 0 01-17 13.47 57.59 57.59 0 01-21.2 7 52 52 0 01-11.51.18 47.3 47.3 0 01-5.77-1 43.82 43.82 0 01-5.67-1.68c-.94-.31-1.82-.77-2.74-1.15s-1.83-.79-2.69-1.29a49.77 49.77 0 01-5-3.13A53.52 53.52 0 0187 672a52.5 52.5 0 01-11.53-20.31 29.75 29.75 0 01-1-12.72 16.6 16.6 0 012.66-6.97 14.89 14.89 0 015.93-4.94 23.32 23.32 0 016.36-1.82 54.58 54.58 0 015.72-.53c3.63-.18 7-.21 10.06-.67a17.37 17.37 0 004.15-1.11 9.87 9.87 0 003.24-2.11 9.53 9.53 0 002.68-7.46 43.47 43.47 0 00-2-9.84c-.49-1.71-1-3.46-1.39-5.26a34.59 34.59 0 01-.87-5.54 20.36 20.36 0 01.4-5.76 17.7 17.7 0 012.2-5.38 17.42 17.42 0 013.85-4.35 26.24 26.24 0 014.85-3 40.36 40.36 0 015.16-2c1.73-.59 3.49-1.08 5.23-1.55 3.5-1 7-1.7 10.48-2.51 6.95-1.56 13.8-3.16 20.52-4.86s13.33-3.55 19.84-5.73a192.59 192.59 0 0019.18-7.67c12.58-5.81 24.53-13 36.48-20.81z" style="fill:#8795a4"/>
                <path d="M451.18 258.85c-.64 6.41-4.63 6.93-12 21-9.6 18.35-6.34 21.89-12 30-8.93 12.82-30.72 2.41-45 15-1.87 1.66-1.19 1.59-12 37-4.24 13.91-8.65 27.95-19 42a45.35 45.35 0 01-3.7 4.65c-12.09 12.81-25.15 8.15-35.3 15.35-13.15 9.33-12.42 32.44-12 43 .85 20.7 8.8 23.87 16 57 3.39 15.56 5.08 23.33 4 34-.51 5.12-3.42 34.08-23 47-24.26 16-49.55-8.85-68 7-11.59 10-5.27 22.92-23 47a118 118 0 01-18 19c-27.33 22.13-84.23 30.18-109 3-27.77-30.47-6.92-96.2 29-124 32.15-24.87 76.53-19.49 77-31 .36-8.75-25.38-10.81-48-39a90.47 90.47 0 01-13-21c-9-20.76-13.43-55.38 2-74 24.29-29.29 83.82-2.21 94-23 9.12-18.61-35.07-47.52-25-70 6.82-15.21 26.56-7.62 61-32 19.76-14 20.44-21.72 42-34a158.28 158.28 0 0142-16c12-2.75 43-8.55 73 2.29a40 40 0 014 1.71c14.82 7.25 35.54 22.76 34 38z" fill="url(#prefix__linear-gradient-6)"/>
            </g>
        </g>
        <path d="M542 158L259 950a3066.77 3066.77 0 00445 34 3067.73 3067.73 0 00466-34L623.69 137.58 542 158" opacity=".44" fill="url(#prefix__linear-gradient-7)" id="prefix__light-2" data-name="light"/>
        <g id="prefix__explosion-2" data-name="explosion">
            <path d="M1580 562.26v-8.63c-1 2.29-.95 5.2 0 8.63z" fill="none"/>
            <path d="M1862.11 541h-.11a47 47 0 01-45.69-36h-116.16a47 47 0 01-45.69 36h-.26a47 47 0 01-45.69-36h-116.16a47 47 0 01-45.69 36h-.26a47 47 0 01-45.69-36h-116.16a47 47 0 01-45.69 36h-.26a47 47 0 01-45.69-36h-116.16a47 47 0 01-45.69 36h-.26a47 47 0 01-45.69-36h-116.4a47 47 0 01-39.07 34.57h-.24A103.83 103.83 0 00862 570c33.74 19.53 63.53 8.8 103 10 14.83.45 24.43 2.39 54 16v-34h139v94h-18c97.54 49 147.7 73 183 61 33.73-11.43 27.89-38.32 61-48a58.71 58.71 0 0127-1.68V614h139v94h-30.14c4.21.77 8.58 1.45 13.14 2 10.09 1.21 87.38 10.52 104-21 6.65-12.61 2.09-29-6.81-46H1580v-80.74c-1-3.43-1-6.34 0-8.63V549h139v38c6.45.86 13.12 1.55 20 2 43 3 81.46 5.65 108-18 9.14-8.15 15.59-18.29 19.92-30.24-1.53.15-3.08.24-4.66.24z" fill="url(#prefix__linear-gradient-8)"/>
            <path d="M900 326h34.6a192.88 192.88 0 00-34.6 0z" fill="url(#prefix__linear-gradient-9)"/>
            <path d="M1753 442v-62.53h-59.29A11.24 11.24 0 011694 357h59v-9h103.9a478 478 0 00-14.09-57.5h-.44l.15.47H1118.9l.48-.47h-.19A111.85 111.85 0 011099 306c-28.15 17.26-55.18 20.79-82 24-38 4.56-53.88-.39-75-3.16V420H803v-66.79c-11.26 7.26-19.87 16.37-23 27.79-.8 2.93-1.37 6.46 8 44 2.81 11.26 5.36 21.09 7.7 29.76A46.7 46.7 0 01823 446h.26a47 47 0 0145.92 37h115.93a47 47 0 0145.69-36h.26a47 47 0 0145.69 36h116.16a47 47 0 0145.69-36h.26a47 47 0 0145.69 36h116.16a47 47 0 0145.69-36h.26a47 47 0 0145.69 36h116.16a47 47 0 0145.69-36h.26a47 47 0 0145.69 36h116.16a47 47 0 0145.69-36h.26a47.34 47.34 0 019.59 1c-.21-2-.44-4-.67-6zm-443-22h-139v-94h139zm293.07-76.78a11 11 0 01-9.36 5.25h-182A11.24 11.24 0 011412 326h182a11 11 0 019.07 17.22z" fill="url(#prefix__linear-gradient-10)"/>
            <path d="M1833 263c-4.57-11.47-4.77-10.49-27.39-55h-.53l.24.47h-163.61A11.24 11.24 0 011642 186h152.48c-28.62-56.78-33-66.9-47.48-77-20.51-14.36-42-15.24-69-16-72.61-2-86.24 25.51-136 24-75.44-2.29-108.28-67.54-137-51-19.7 11.35-12.14 46.61-13.36 78H1515a11.24 11.24 0 01-.29 22.47h-126.23c-2.56 8.95-7 16.78-14.48 22.53-34.46 26.37-84.83-28.49-146 0-13 6-31.65 24.36-69 61-7.34 7.2-13.31 13.27-18.38 18.5h694.53c-.73-1.91-1.45-3.75-2.15-5.5zm-331.93-26.78a11 11 0 01-9.36 5.25h-182A11.24 11.24 0 011310 219h182a11 11 0 019.07 17.22z" fill="url(#prefix__linear-gradient-11)"/>
            <path class="prefix__cls-30" d="M1140.33 269h694.52c2.4 6.28 5 13.42 7.52 21.53h.44c-2.62-8.31-5.22-15.6-7.66-22h-694.53c-9.36 9.66-15.6 16.44-21.43 22h.19c5.7-5.53 11.84-12.17 20.95-21.53zM1492 219h-182a11 11 0 00-9.36 5.25 11 11 0 019.07-4.78h182a11 11 0 019.36 16.75A11 11 0 001492 219zM1594 326h-182a11 11 0 00-9.36 5.25 11 11 0 019.07-4.78h182a11 11 0 019.36 16.75A11 11 0 001594 326zM1525.71 155.47a11 11 0 01-1.64 5.75A11 11 0 001515 144h-123.36v.47h123.09a11 11 0 0110.98 11zM1693.71 357.47H1753V357h-59a11 11 0 00-9.36 5.25 11 11 0 019.07-4.78zM1632.64 191.25a11 11 0 019.07-4.78h152.48l2.52 5c3.09 6.12 5.86 11.59 8.37 16.53h.53c-2.57-5.05-5.42-10.69-8.61-17l-2.52-5H1642a11 11 0 00-9.36 5.25z"/>
            <path d="M1118.9 291h723.62l-.15-.47h-723z" fill="url(#prefix__linear-gradient-12)"/>
            <path d="M1118.9 291h723.62l-.15-.47h-723z" fill="url(#prefix__linear-gradient-13)"/>
            <path class="prefix__cls-30" d="M1140.33 269c-9.11 9.39-15.25 16-20.95 21.53h723a390.13 390.13 0 00-7.52-21.53z"/>
            <path d="M1140.33 269c-9.11 9.39-15.25 16-20.95 21.53h723a390.13 390.13 0 00-7.52-21.53z" fill="url(#prefix__linear-gradient-14)"/>
            <path d="M1492 241h-182a11 11 0 01-9.36-16.75 11 11 0 009.07 17.22h182a11 11 0 009.36-5.25A11 11 0 011492 241z" fill="url(#prefix__linear-gradient-15)"/>
            <path d="M1492 241h-182a11 11 0 01-9.36-16.75 11 11 0 009.07 17.22h182a11 11 0 009.36-5.25A11 11 0 011492 241z" fill="url(#prefix__linear-gradient-16)"/>
            <path class="prefix__cls-30" d="M1491.71 219.47h-182A10.77 10.77 0 101310 241h182a10.77 10.77 0 10-.29-21.53z"/>
            <path d="M1491.71 219.47h-182A10.77 10.77 0 101310 241h182a10.77 10.77 0 10-.29-21.53z" fill="url(#prefix__linear-gradient-17)"/>
            <path d="M1594 348h-182a11 11 0 01-9.36-16.75 11 11 0 009.07 17.22h182a11 11 0 009.36-5.25A11 11 0 011594 348z" fill="url(#prefix__linear-gradient-18)"/>
            <path d="M1594 348h-182a11 11 0 01-9.36-16.75 11 11 0 009.07 17.22h182a11 11 0 009.36-5.25A11 11 0 011594 348z" fill="url(#prefix__linear-gradient-19)"/>
            <path class="prefix__cls-30" d="M1593.71 326.47h-182A10.77 10.77 0 101412 348h182a10.77 10.77 0 10-.29-21.53z"/>
            <path d="M1593.71 326.47h-182A10.77 10.77 0 101412 348h182a10.77 10.77 0 10-.29-21.53z" fill="url(#prefix__linear-gradient-20)"/>
            <path d="M1391.62 144.47h-.27a97.33 97.33 0 01-3 22h.16c0-.16.09-.31.14-.47a96.82 96.82 0 002.97-21.53z" fill="url(#prefix__linear-gradient-21)"/>
            <path d="M1524.07 161.22A11 11 0 011515 166h-126.38c0 .16-.1.31-.14.47h126.23a11 11 0 009.36-5.25z" fill="url(#prefix__linear-gradient-22)"/>
            <path d="M1524.07 161.22A11 11 0 011515 166h-126.38c0 .16-.1.31-.14.47h126.23a11 11 0 009.36-5.25z" fill="url(#prefix__linear-gradient-23)"/>
            <path class="prefix__cls-30" d="M1515 166a10.77 10.77 0 10-.29-21.53h-123.09a96.82 96.82 0 01-3 21.53z"/>
            <path d="M1515 166a10.77 10.77 0 10-.29-21.53h-123.09a96.82 96.82 0 01-3 21.53z" fill="url(#prefix__linear-gradient-24)"/>
            <path d="M1694 379a11 11 0 01-9.36-16.75 11 11 0 009.07 17.22H1753V379z" fill="url(#prefix__linear-gradient-25)"/>
            <path d="M1694 379a11 11 0 01-9.36-16.75 11 11 0 009.07 17.22H1753V379z" fill="url(#prefix__linear-gradient-26)"/>
            <path class="prefix__cls-30" d="M1694 379h59v-21.53h-59.29A10.77 10.77 0 101694 379z"/>
            <path class="prefix__cls-46" d="M1694 379h59v-21.53h-59.29A10.77 10.77 0 101694 379z"/>
            <path d="M1631 197a10.93 10.93 0 011.64-5.75 11 11 0 009.07 17.22h163.61l-.24-.47H1642a11 11 0 01-11-11z" fill="url(#prefix__linear-gradient-28)"/>
            <path d="M1631 197a10.93 10.93 0 011.64-5.75 11 11 0 009.07 17.22h163.61l-.24-.47H1642a11 11 0 01-11-11z" fill="url(#prefix__linear-gradient-29)"/>
            <path class="prefix__cls-30" d="M1794.19 186.47h-152.48A10.77 10.77 0 101642 208h163.08c-2.51-4.94-5.28-10.41-8.37-16.53z"/>
            <path d="M1794.19 186.47h-152.48A10.77 10.77 0 101642 208h163.08c-2.51-4.94-5.28-10.41-8.37-16.53z" fill="url(#prefix__linear-gradient-30)"/>
            <path class="prefix__cls-21" d="M1401 505h-.26a47 47 0 0045.69 36h.13a47 47 0 01-45.56-36zM1193.17 505h-.26a47 47 0 0045.69 36h.13a47 47 0 01-45.56-36zM1608.77 505h-.26a47 47 0 0045.69 36h.13a47 47 0 01-45.56-36zM985.37 505h-.26a47 47 0 0045.69 36h.13a47 47 0 01-45.56-36zM1238.73 447h-.13a47 47 0 00-45.69 36h.26a47 47 0 0145.56-36zM1654.33 447h-.13a47 47 0 00-45.69 36h.26a47 47 0 0145.56-36zM1446.53 447h-.13a47 47 0 00-45.69 36h.26a47 47 0 0145.56-36zM813.26 509c-5-12.4-10.21-28-17.3-54.24a46.76 46.76 0 0127.16-8.76H823a46.7 46.7 0 00-27.3 8.76C802.79 481 808 496.6 813 509a151.56 151.56 0 0016.37 30.57h.24A151.17 151.17 0 01813.26 509zM1030.93 447h-.13a47 47 0 00-45.69 36h.26a47 47 0 0145.56-36zM1816.57 505h-.26a47 47 0 0045.69 36h.11a47 47 0 01-45.54-36zM1862.12 447h-.12a47 47 0 00-45.69 36h.26a47 47 0 0145.55-36z"/>
            <path d="M1866.93 540.73h.27c8.71-24 8.84-55.43 4.93-92.69l-.27-.05v.01c3.91 37.3 3.78 68.69-4.93 92.73z" fill="url(#prefix__linear-gradient-31)"/>
            <path d="M1238.73 541h.13a47 47 0 0045.69-36h-.26a47 47 0 01-45.56 36z" fill="url(#prefix__linear-gradient-32)"/>
            <path d="M1238.73 541h.13a47 47 0 0045.69-36h-.26a47 47 0 01-45.56 36z" fill="url(#prefix__linear-gradient-33)"/>
            <path d="M1654.33 541h.13a47 47 0 0045.69-36h-.26a47 47 0 01-45.56 36z" fill="url(#prefix__linear-gradient-34)"/>
            <path d="M1654.33 541h.13a47 47 0 0045.69-36h-.26a47 47 0 01-45.56 36z" fill="url(#prefix__linear-gradient-35)"/>
            <path d="M1862.11 541h.15c1.58 0 3.13-.09 4.66-.24a47.82 47.82 0 01-4.81.24z" fill="url(#prefix__linear-gradient-36)"/>
            <path d="M1862.11 541h.15c1.58 0 3.13-.09 4.66-.24a47.82 47.82 0 01-4.81.24z" fill="url(#prefix__linear-gradient-37)"/>
            <path d="M1030.93 541h.13a47 47 0 0045.69-36h-.26a47 47 0 01-45.56 36z" fill="url(#prefix__linear-gradient-38)"/>
            <path d="M1030.93 541h.13a47 47 0 0045.69-36h-.26a47 47 0 01-45.56 36z" fill="url(#prefix__linear-gradient-39)"/>
            <path d="M829.61 539.53a47 47 0 0039.1-34.53h-.26a47 47 0 01-38.84 34.53z" fill="url(#prefix__linear-gradient-40)"/>
            <path d="M829.61 539.53a47 47 0 0039.1-34.53h-.26a47 47 0 01-38.84 34.53z" fill="url(#prefix__linear-gradient-41)"/>
            <path d="M1446.53 541h.13a47 47 0 0045.69-36h-.26a47 47 0 01-45.56 36z" fill="url(#prefix__linear-gradient-42)"/>
            <path d="M1446.53 541h.13a47 47 0 0045.69-36h-.26a47 47 0 01-45.56 36z" fill="url(#prefix__linear-gradient-43)"/>
            <path d="M1076.49 483h.26a47 47 0 00-45.69-36h-.13a47 47 0 0145.56 36z" fill="url(#prefix__linear-gradient-44)"/>
            <path d="M1076.49 483h.26a47 47 0 00-45.69-36h-.13a47 47 0 0145.56 36z" fill="url(#prefix__linear-gradient-45)"/>
            <path d="M868.92 483h.26a47 47 0 00-45.92-37h-.14a47 47 0 0145.8 37z" fill="url(#prefix__linear-gradient-46)"/>
            <path d="M868.92 483h.26a47 47 0 00-45.92-37h-.14a47 47 0 0145.8 37z" fill="url(#prefix__linear-gradient-47)"/>
            <path d="M1862.12 447a47.4 47.4 0 019.74 1 47.34 47.34 0 00-9.59-1z" fill="url(#prefix__linear-gradient-48)"/>
            <path d="M1862.12 447a47.4 47.4 0 019.74 1 47.34 47.34 0 00-9.59-1z" fill="url(#prefix__linear-gradient-49)"/>
            <path d="M1699.89 483h.26a47 47 0 00-45.69-36h-.13a47 47 0 0145.56 36z" fill="url(#prefix__linear-gradient-50)"/>
            <path d="M1699.89 483h.26a47 47 0 00-45.69-36h-.13a47 47 0 0145.56 36z" fill="url(#prefix__linear-gradient-51)"/>
            <path d="M1284.29 483h.26a47 47 0 00-45.69-36h-.13a47 47 0 0145.56 36z" fill="url(#prefix__linear-gradient-52)"/>
            <path d="M1284.29 483h.26a47 47 0 00-45.69-36h-.13a47 47 0 0145.56 36z" fill="url(#prefix__linear-gradient-53)"/>
            <path d="M1492.09 483h.26a47 47 0 00-45.69-36h-.13a47 47 0 0145.56 36z" fill="url(#prefix__linear-gradient-54)"/>
            <path d="M1492.09 483h.26a47 47 0 00-45.69-36h-.13a47 47 0 0145.56 36z" fill="url(#prefix__linear-gradient-55)"/>
            <path class="prefix__cls-21" d="M813.26 509a151.17 151.17 0 0016.35 30.53A47 47 0 00868.45 505h116.92a46.83 46.83 0 0091.12 0h116.68a46.83 46.83 0 0091.12 0H1401a46.83 46.83 0 0091.12 0h116.68a46.83 46.83 0 0091.12 0h116.68a47 47 0 0045.54 36 47.82 47.82 0 004.82-.27c8.71-24 8.84-55.43 4.93-92.69a46.73 46.73 0 00-55.29 35h-116.71a46.83 46.83 0 00-91.12 0h-116.68a46.83 46.83 0 00-91.12 0h-116.68a46.83 46.83 0 00-91.12 0h-116.68a46.83 46.83 0 00-91.12 0H868.92a46.74 46.74 0 00-73-28.24c7.13 26.2 12.33 41.8 17.34 54.2z"/>
            <path d="M813.26 509a151.17 151.17 0 0016.35 30.53A47 47 0 00868.45 505h116.92a46.83 46.83 0 0091.12 0h116.68a46.83 46.83 0 0091.12 0H1401a46.83 46.83 0 0091.12 0h116.68a46.83 46.83 0 0091.12 0h116.68a47 47 0 0045.54 36 47.82 47.82 0 004.82-.27c8.71-24 8.84-55.43 4.93-92.69a46.73 46.73 0 00-55.29 35h-116.71a46.83 46.83 0 00-91.12 0h-116.68a46.83 46.83 0 00-91.12 0h-116.68a46.83 46.83 0 00-91.12 0h-116.68a46.83 46.83 0 00-91.12 0H868.92a46.74 46.74 0 00-73-28.24c7.13 26.2 12.33 41.8 17.34 54.2z" fill="url(#prefix__linear-gradient-56)"/>
            <path fill="url(#prefix__linear-gradient-57)" d="M1171 326h139v94h-139z"/>
            <path fill="url(#prefix__linear-gradient-58)" d="M1171 326h139v94h-139z"/>
            <path d="M1550 614h-139v53.32c29.74 5 56.07 31 108.86 40.68H1550z" fill="url(#prefix__linear-gradient-59)"/>
            <path d="M1550 614h-139v53.32c29.74 5 56.07 31 108.86 40.68H1550z" fill="url(#prefix__linear-gradient-60)"/>
            <path d="M1158 562h-139v34c22.72 10.51 57.24 27.93 115 57l6 3h18z" fill="url(#prefix__linear-gradient-61)"/>
            <path d="M1158 562h-139v34c22.72 10.51 57.24 27.93 115 57l6 3h18z" fill="url(#prefix__linear-gradient-62)"/>
            <path d="M1753 357h105.5c-.52-3.07-1.06-6.07-1.6-9H1753z" fill="url(#prefix__linear-gradient-63)"/>
            <path d="M1753 357h105.5c-.52-3.07-1.06-6.07-1.6-9H1753z" fill="url(#prefix__linear-gradient-64)"/>
            <path d="M1861.73 379c0 .15 0 .31.08.47H1753V442h118.18c-2.23-19.53-5.46-40.59-9.08-63z" fill="url(#prefix__linear-gradient-65)"/>
            <path d="M1861.73 379c0 .15 0 .31.08.47H1753V442h118.18c-2.23-19.53-5.46-40.59-9.08-63z" fill="url(#prefix__linear-gradient-66)"/>
            <path class="prefix__cls-30" d="M1858.2 357.47l.51 3q1.55 9.4 3 18.53h.37q-1.51-9.35-3.1-19c-.17-1-.34-2-.5-3H1753v.47z"/>
            <path d="M1858.2 357.47l.51 3q1.55 9.4 3 18.53h.37q-1.51-9.35-3.1-19c-.17-1-.34-2-.5-3H1753v.47z" fill="url(#prefix__linear-gradient-67)"/>
            <path d="M1861.73 379H1753v.47h108.81c-.03-.16-.05-.32-.08-.47z" fill="url(#prefix__linear-gradient-68)"/>
            <path d="M1861.73 379H1753v.47h108.81c-.03-.16-.05-.32-.08-.47z" fill="url(#prefix__linear-gradient-69)"/>
            <path d="M1861.73 379H1753v.47h108.81c-.03-.16-.05-.32-.08-.47z" fill="url(#prefix__linear-gradient-70)"/>
            <path class="prefix__cls-30" d="M1858.2 357.47H1753V379h108.73q-1.47-9.12-3-18.53c-.19-1.02-.36-2.01-.53-3z"/>
            <path class="prefix__cls-46" d="M1858.2 357.47H1753V379h108.73q-1.47-9.12-3-18.53c-.19-1.02-.36-2.01-.53-3z"/>
            <path d="M1858.2 357.47H1753V379h108.73q-1.47-9.12-3-18.53c-.19-1.02-.36-2.01-.53-3z" fill="url(#prefix__linear-gradient-72)"/>
            <path d="M942 326h-7.4c2.56.24 5 .52 7.4.84z" fill="url(#prefix__linear-gradient-73)"/>
            <path d="M942 420v-93.16c-2.39-.32-4.84-.6-7.4-.84H900c-6.75.55-63.58 5.69-97 27.21V420z" fill="url(#prefix__linear-gradient-74)"/>
            <path d="M942 420v-93.16c-2.39-.32-4.84-.6-7.4-.84H900c-6.75.55-63.58 5.69-97 27.21V420z" fill="url(#prefix__linear-gradient-75)"/>
            <path d="M1580 643h50.19c-15.76-30.18-45.14-62.62-50.19-80.74z" fill="url(#prefix__linear-gradient-76)"/>
            <path d="M1580 549v4.63a7.22 7.22 0 011-1.63c10.91-13.17 57.64 24.23 138 35v-38z" fill="url(#prefix__linear-gradient-77)"/>
        </g>
        <g id="prefix__laptop">
            <path class="prefix__cls-96" d="M619.18 660.18l200.31-93.36a6 6 0 002.9-8 6 6 0 00-8-2.9L614.11 649.3a6 6 0 005.07 10.88z"/>
            <rect class="prefix__cls-96" x="675.48" y="445.79" width="233" height="12" rx="6" transform="rotate(75.81 791.994 451.83)"/>
            <path d="M619 660.33L819.28 567a6 6 0 002.9-8 6 6 0 00-8-2.9L613.9 649.45a6 6 0 105.1 10.88z" fill="url(#prefix__linear-gradient-78)"/>
            <rect x="675.26" y="445.93" width="233" height="12" rx="6" transform="rotate(75.81 791.774 451.97)" fill="url(#prefix__linear-gradient-79)"/>
        </g>
    </g>
</svg>
