<svg xmlns="http://www.w3.org/2000/svg" xmlns:xlink="http://www.w3.org/1999/xlink" viewBox="0 0 1700 1080">
    <defs>
        <linearGradient id="linear-gradient-17" x1="477" y1="134" x2="960" y2="134" gradientTransform="matrix(-1, 0, 0, 1, 1437, 0)" xlink:href="#linear-gradient"/>
        <linearGradient id="Orchid-6" x1="607.07" y1="426.82" x2="634.11" y2="426.82" xlink:href="#Orchid"/>
        <linearGradient id="linear-gradient-2" x1="995" y1="377" x2="1478" y2="377" gradientTransform="matrix(1, 0, 0, 1, 0, 0)" xlink:href="#linear-gradient"/>
        <linearGradient id="linear-gradient-3" x1="1027" y1="171" x2="1375" y2="171" gradientUnits="userSpaceOnUse">
            <stop offset="0" stop-color="#00a99d"/>
            <stop offset="0.61" stop-color="#9574bf" stop-opacity="0.52"/>
            <stop offset="1" stop-color="#f652d5" stop-opacity="0.2"/>
        </linearGradient>
        <linearGradient id="linear-gradient-4" x1="1015" y1="272" x2="1244" y2="272" xlink:href="#linear-gradient-3"/>
        <linearGradient id="linear-gradient-5" x1="1015" y1="347" x2="1244" y2="347" xlink:href="#linear-gradient-3"/>
        <linearGradient id="linear-gradient-6" x1="1290" y1="414" x2="1478" y2="414" xlink:href="#linear-gradient-3"/>
        <linearGradient id="linear-gradient-7" x1="1306" y1="272" x2="1478" y2="272" xlink:href="#linear-gradient-3"/>
        <linearGradient id="linear-gradient-8" x1="995" y1="496" x2="1201" y2="496" xlink:href="#linear-gradient-3"/>
        <linearGradient id="linear-gradient-9" x1="1237" y1="496" x2="1466" y2="496" xlink:href="#linear-gradient-3"/>
        <linearGradient id="linear-gradient-10" x1="995" y1="588" x2="1160" y2="588" xlink:href="#linear-gradient-3"/>
        <linearGradient id="linear-gradient-11" x1="1201" y1="588" x2="1430" y2="588" xlink:href="#linear-gradient-3"/>
        <linearGradient id="linear-gradient-12" x1="1466" y1="588" x2="1478" y2="588" xlink:href="#linear-gradient-3"/>
        <linearGradient id="linear-gradient-13" x1="1406" x2="1478" xlink:href="#linear-gradient-3"/>
        <linearGradient id="linear-gradient-14" x1="535" y1="441" x2="718" y2="441" gradientTransform="matrix(1, 0, 0, 1, 0, 0)" xlink:href="#linear-gradient"/>
        <linearGradient id="Orchid" x1="835" y1="386.43" x2="404.18" y2="530.04" gradientUnits="userSpaceOnUse">
            <stop offset="0" stop-color="#ff7bab"/>
            <stop offset="0.22" stop-color="#ff7bab" stop-opacity="0.76"/>
            <stop offset="0.6" stop-color="#ff7bab" stop-opacity="0.36"/>
            <stop offset="0.87" stop-color="#ff7bab" stop-opacity="0.1"/>
            <stop offset="1" stop-color="#ff7bab" stop-opacity="0"/>
        </linearGradient>
        <linearGradient id="linear-gradient-15" x1="934.5" y1="172.45" x2="589.46" y2="429.78" gradientTransform="translate(448.09 -461.45) rotate(46.01)" gradientUnits="userSpaceOnUse">
            <stop offset="0" stop-color="#ff7bab"/>
            <stop offset="0.08" stop-color="#ff7bab" stop-opacity="0.91"/>
            <stop offset="0.51" stop-color="#ff7bab" stop-opacity="0.43"/>
            <stop offset="0.82" stop-color="#ff7bab" stop-opacity="0.12"/>
            <stop offset="0.95" stop-color="#ff7bab" stop-opacity="0"/>
            <stop offset="1" stop-color="#ff7bab" stop-opacity="0"/>
        </linearGradient>
        <linearGradient id="linear-gradient-16" x1="477" y1="432.5" x2="960" y2="432.5" gradientTransform="matrix(-1, 0, 0, 1, 1437, 0)" xlink:href="#linear-gradient"/>
        <linearGradient id="linear-gradient" x1="1741.97" y1="763.18" x2="913.69" y2="765.3" gradientTransform="matrix(1, 0, 0, -1, 0, 1529)" gradientUnits="userSpaceOnUse">
            <stop offset="0" stop-color="#1175b6"/>
            <stop offset="0.19" stop-color="#1575b6" stop-opacity="0.98"/>
            <stop offset="0.35" stop-color="#2275b5" stop-opacity="0.93"/>
            <stop offset="0.48" stop-color="#3776b4" stop-opacity="0.84"/>
            <stop offset="0.61" stop-color="#5677b3" stop-opacity="0.71"/>
            <stop offset="0.73" stop-color="#7d78b1" stop-opacity="0.55"/>
            <stop offset="0.84" stop-color="#ad79af" stop-opacity="0.34"/>
            <stop offset="0.95" stop-color="#e57aac" stop-opacity="0.11"/>
            <stop offset="1" stop-color="#ff7bab" stop-opacity="0"/>
        </linearGradient>
        <linearGradient id="linear-gradient-18" x1="477" y1="189.5" x2="960" y2="189.5" gradientTransform="matrix(-1, 0, 0, 1, 1437, 0)" xlink:href="#linear-gradient"/>
        <linearGradient id="linear-gradient-19" x1="188.94" y1="197.84" x2="1021.98" y2="184.72" gradientUnits="userSpaceOnUse">
            <stop offset="0" stop-color="#ff7bab"/>
            <stop offset="0.64" stop-color="#b7b6c2"/>
            <stop offset="0.95" stop-color="#98cfcb"/>
            <stop offset="0.96" stop-color="#9ecac9" stop-opacity="0.94"/>
            <stop offset="0.98" stop-color="#d2a0b9" stop-opacity="0.44"/>
            <stop offset="0.99" stop-color="#f285af" stop-opacity="0.12"/>
            <stop offset="1" stop-color="#ff7bab" stop-opacity="0"/>
        </linearGradient>
        <linearGradient id="linear-gradient-20" x1="735.76" y1="755.41" x2="976.82" y2="751.62" xlink:href="#linear-gradient-3"/>
        <linearGradient id="linear-gradient-21" x1="564.76" y1="760.41" x2="805.82" y2="756.62" xlink:href="#linear-gradient-3"/>
        <linearGradient id="linear-gradient-22" x1="393.76" y1="760.41" x2="634.82" y2="756.62" xlink:href="#linear-gradient-3"/>
        <linearGradient id="linear-gradient-23" x1="793.83" y1="930.02" x2="608.12" y2="988.35" gradientUnits="userSpaceOnUse">
            <stop offset="0" stop-color="#2571ab"/>
            <stop offset="0.25" stop-color="#2871ab" stop-opacity="0.98"/>
            <stop offset="0.4" stop-color="#3372ab" stop-opacity="0.94"/>
            <stop offset="0.53" stop-color="#4672ab" stop-opacity="0.85"/>
            <stop offset="0.65" stop-color="#6074ab" stop-opacity="0.73"/>
            <stop offset="0.75" stop-color="#8275ab" stop-opacity="0.57"/>
            <stop offset="0.85" stop-color="#ac77ab" stop-opacity="0.38"/>
            <stop offset="0.94" stop-color="#dc79ab" stop-opacity="0.16"/>
            <stop offset="1" stop-color="#ff7bab" stop-opacity="0"/>
        </linearGradient>
        <linearGradient id="linear-gradient-24" x1="754.82" y1="965.89" x2="483.29" y2="981.31" gradientUnits="userSpaceOnUse">
            <stop offset="0" stop-color="#1f34ab"/>
            <stop offset="0.25" stop-color="#2235ab" stop-opacity="0.98"/>
            <stop offset="0.41" stop-color="#2e39ab" stop-opacity="0.94"/>
            <stop offset="0.53" stop-color="#413fab" stop-opacity="0.85"/>
            <stop offset="0.65" stop-color="#5c47ab" stop-opacity="0.73"/>
            <stop offset="0.75" stop-color="#7e52ab" stop-opacity="0.57"/>
            <stop offset="0.85" stop-color="#a960ab" stop-opacity="0.38"/>
            <stop offset="0.94" stop-color="#db70ab" stop-opacity="0.16"/>
            <stop offset="1" stop-color="#ff7bab" stop-opacity="0"/>
        </linearGradient>
        <linearGradient id="linear-gradient-25" x1="904.72" y1="714.75" x2="350.73" y2="869.8" gradientUnits="userSpaceOnUse">
            <stop offset="0" stop-color="#d371ab"/>
            <stop offset="0.23" stop-color="#d471ab" stop-opacity="0.99"/>
            <stop offset="0.38" stop-color="#d572ab" stop-opacity="0.95"/>
            <stop offset="0.5" stop-color="#d872ab" stop-opacity="0.88"/>
            <stop offset="0.61" stop-color="#dd73ab" stop-opacity="0.78"/>
            <stop offset="0.7" stop-color="#e274ab" stop-opacity="0.65"/>
            <stop offset="0.8" stop-color="#e976ab" stop-opacity="0.5"/>
            <stop offset="0.88" stop-color="#f178ab" stop-opacity="0.31"/>
            <stop offset="0.96" stop-color="#fa7aab" stop-opacity="0.11"/>
            <stop offset="1" stop-color="#ff7bab" stop-opacity="0"/>
        </linearGradient>
        <linearGradient id="linear-gradient-26" x1="517.2" y1="562.96" x2="675.08" y2="562.96" gradientUnits="userSpaceOnUse">
            <stop offset="0" stop-color="#9871ab"/>
            <stop offset="0.16" stop-color="#a572ab" stop-opacity="0.88"/>
            <stop offset="0.49" stop-color="#c675ab" stop-opacity="0.56"/>
            <stop offset="0.96" stop-color="#fa7bab" stop-opacity="0.04"/>
            <stop offset="1" stop-color="#ff7bab" stop-opacity="0"/>
        </linearGradient>
        <linearGradient id="linear-gradient-27" x1="809.69" y1="331.91" x2="593.94" y2="398.49" gradientUnits="userSpaceOnUse">
            <stop offset="0" stop-color="#888fdc"/>
            <stop offset="0.23" stop-color="#898fdb" stop-opacity="0.99"/>
            <stop offset="0.37" stop-color="#8e8eda" stop-opacity="0.95"/>
            <stop offset="0.49" stop-color="#968dd6" stop-opacity="0.88"/>
            <stop offset="0.6" stop-color="#a18bd2" stop-opacity="0.79"/>
            <stop offset="0.69" stop-color="#af88cc" stop-opacity="0.67"/>
            <stop offset="0.78" stop-color="#c185c4" stop-opacity="0.52"/>
            <stop offset="0.87" stop-color="#d682bc" stop-opacity="0.34"/>
            <stop offset="0.95" stop-color="#ee7eb2" stop-opacity="0.14"/>
            <stop offset="1" stop-color="#ff7bab" stop-opacity="0"/>
        </linearGradient>
        <linearGradient id="linear-gradient-28" x1="836.35" y1="356.2" x2="510.31" y2="521.94" gradientUnits="userSpaceOnUse">
            <stop offset="0" stop-color="#1ea4bc"/>
            <stop offset="0.24" stop-color="#21a3bc" stop-opacity="0.99"/>
            <stop offset="0.39" stop-color="#2ba2bb" stop-opacity="0.94"/>
            <stop offset="0.52" stop-color="#3d9eba" stop-opacity="0.86"/>
            <stop offset="0.63" stop-color="#559ab8" stop-opacity="0.75"/>
            <stop offset="0.73" stop-color="#7594b5" stop-opacity="0.61"/>
            <stop offset="0.83" stop-color="#9c8db2" stop-opacity="0.44"/>
            <stop offset="0.92" stop-color="#ca85af" stop-opacity="0.24"/>
            <stop offset="1" stop-color="#ff7bab" stop-opacity="0"/>
        </linearGradient>
        <linearGradient id="Orchid-2" x1="569.77" y1="570.85" x2="671.69" y2="570.85" xlink:href="#Orchid"/>
        <linearGradient id="linear-gradient-29" x1="674.93" y1="493.99" x2="381.1" y2="589.49" gradientUnits="userSpaceOnUse">
            <stop offset="0" stop-color="#9871ab"/>
            <stop offset="0.21" stop-color="#9a71ab" stop-opacity="0.98"/>
            <stop offset="0.36" stop-color="#a072ab" stop-opacity="0.93"/>
            <stop offset="0.5" stop-color="#a973ab" stop-opacity="0.83"/>
            <stop offset="0.63" stop-color="#b774ab" stop-opacity="0.7"/>
            <stop offset="0.75" stop-color="#c976ab" stop-opacity="0.53"/>
            <stop offset="0.86" stop-color="#de78ab" stop-opacity="0.32"/>
            <stop offset="0.97" stop-color="#f87aab" stop-opacity="0.07"/>
            <stop offset="1" stop-color="#ff7bab" stop-opacity="0"/>
        </linearGradient>
        <linearGradient id="linear-gradient-30" x1="429.42" y1="480.83" x2="716.77" y2="454.19" xlink:href="#linear-gradient-25"/>
        <linearGradient id="Orchid-3" x1="530.61" y1="550.79" x2="567.61" y2="550.79" xlink:href="#Orchid"/>
        <linearGradient id="Orchid-4" x1="500.61" y1="551.38" x2="596.7" y2="551.38" xlink:href="#Orchid"/>
        <linearGradient id="Orchid-5" x1="544.61" y1="419.32" x2="601.61" y2="419.32" xlink:href="#Orchid"/>
        <style>
            .cls-25{fill:#4d4d4d}.cls-28{fill:#576ebb}.cls-33{fill:#c0272d}.cls-41{fill:#2e3191}
        </style>
    </defs>
    <title>
        grape_promo_what_art
    </title>
    <g id="board">
        <rect x="995" y="687" width="483" height="155" transform="translate(2473 1529) rotate(180)" style="fill:url(#linear-gradient);opacity:.7"/>
        <path d="M1406,171a15,15,0,0,1,15-15h57V106H995V481h191a15,15,0,0,1,0,30H995v62h150a15,15,0,0,1,0,30H995v45h483V602.7a15,15,0,0,1,0-29.4V429H1305a15,15,0,0,1,0-30h173V287H1321a15,15,0,0,1,0-30h157V186h-57A15,15,0,0,1,1406,171Zm-376,86h199a15,15,0,0,1,0,30H1030a15,15,0,0,1,0-30Zm0,105a15,15,0,0,1,0-30h199a15,15,0,0,1,0,30Zm385,241H1216a15,15,0,0,1,0-30h199a15,15,0,0,1,0,30Zm36-122a15,15,0,0,1,0,30H1252a15,15,0,0,1,0-30Zm-91-295H1042a15,15,0,0,1,0-30h318a15,15,0,0,1,0,30Z" style="fill:url(#linear-gradient-2);opacity:.7"/>
        <path d="M1360,156H1042a15,15,0,0,0,0,30h318a15,15,0,0,0,0-30Z" style="fill:url(#linear-gradient-3)"/>
        <path d="M1030,287h199a15,15,0,0,0,0-30H1030a15,15,0,0,0,0,30Z" style="fill:url(#linear-gradient-4)"/>
        <path d="M1244,347a15,15,0,0,0-15-15H1030a15,15,0,0,0,0,30h199A15,15,0,0,0,1244,347Z" style="fill:url(#linear-gradient-5)"/>
        <path d="M1290,414a15,15,0,0,0,15,15h173V399H1305A15,15,0,0,0,1290,414Z" style="fill:url(#linear-gradient-6)"/>
        <path d="M1306,272a15,15,0,0,0,15,15h157V257H1321A15,15,0,0,0,1306,272Z" style="fill:url(#linear-gradient-7)"/>
        <path d="M1201,496a15,15,0,0,0-15-15H995v30h191A15,15,0,0,0,1201,496Z" style="fill:url(#linear-gradient-8)"/>
        <path d="M1237,496a15,15,0,0,0,15,15h199a15,15,0,0,0,0-30H1252A15,15,0,0,0,1237,496Z" style="fill:url(#linear-gradient-9)"/>
        <path d="M1160,588a15,15,0,0,0-15-15H995v30h150A15,15,0,0,0,1160,588Z" style="fill:url(#linear-gradient-10)"/>
        <path d="M1415,573H1216a15,15,0,0,0,0,30h199a15,15,0,0,0,0-30Z" style="fill:url(#linear-gradient-11)"/>
        <path d="M1466,588a15,15,0,0,0,12,14.7V573.3A15,15,0,0,0,1466,588Z" style="fill:url(#linear-gradient-12)"/>
        <path d="M1421,156a15,15,0,0,0,0,30h57V156Z" style="fill:url(#linear-gradient-13)"/>
        <path d="M718,599H535V308a179.91,179.91,0,0,1,183,0Z" style="fill:url(#linear-gradient-14)"/>
        <path d="M718,599a173.9,173.9,0,0,1-183,0V308c9,7.35,43.41,33.49,94.12,32.58,47.46-.86,79.42-24.89,88.88-32.58Z" style="fill:url(#Orchid)"/>
        <rect x="628" y="281" width="279" height="32" transform="translate(20.75 642.87) rotate(-46.01)" style="fill:url(#linear-gradient-15)"/>
        <rect x="477" y="217" width="483" height="431" style="fill:url(#linear-gradient-16)"/>
        <rect x="477" y="106" width="483" height="56" style="fill:url(#linear-gradient-17)"/>
        <rect x="477" y="162" width="483" height="55" style="fill:url(#linear-gradient-18)"/>
        <rect x="477" y="162" width="483" height="55" style="opacity:.5;fill:url(#linear-gradient-19)"/>
        <circle cx="889" cy="753" r="70" style="fill:url(#linear-gradient-20)"/>
        <circle cx="718" cy="758" r="70" style="fill:url(#linear-gradient-21)"/>
        <circle cx="547" cy="758" r="70" style="fill:url(#linear-gradient-22)"/>
    </g>
    <g id="person">
        <path d="M610.91,414a33.41,33.41,0,0,1,6.58,10q.56,14.5,1.1,29a73.1,73.1,0,0,1-35.1,3,68.17,68.17,0,0,1-14.26-4,62.44,62.44,0,0,0,7.68-21c2.69-16.12-2.93-24.18,2.19-28C585.39,398.31,601.86,404.5,610.91,414Z" style="fill:#a47240"/>
        <path class="cls-25" d="M641.79,969c2,7.45,1.85,8.69,3.19,10,1.67,1.63,5.22,3,13.82,1,2,0,2.85.48,3.18,1,2.34,3.59-10.59,19-27.62,23a41.32,41.32,0,0,1-18.07,0,17.17,17.17,0,0,1-3.19-8,18.35,18.35,0,0,1,3.19-12c3.49-5.41,6.83-5.18,8.5-9,1.15-2.64,1.38-6.92-3.19-14,11.82-4.44,15.68-2.21,17-1C639.12,960.47,639.78,961.26,641.79,969Z"/>
        <path class="cls-25" d="M501.4,968.72c2.12,7.46,2,8.69,3.47,10,1.82,1.63,5.7,3.06,15.07,1,2.23,0,3.11.49,3.47,1,2.55,3.59-11.55,19-30.12,23a48.83,48.83,0,0,1-19.7,0,16.36,16.36,0,0,1-3.48-8c-.73-5.86,2.34-10.38,3.48-12,3.81-5.41,7.45-5.17,9.27-9,1.26-2.63,1.51-6.92-3.48-14,12.89-4.44,17.09-2.21,18.54-1C498.48,960.19,499.2,961,501.4,968.72Z"/>
        <path d="M641.71,968.63c1.94,7.45,1.85,8.69,3.19,10,1.67,1.63,5.22,3,13.81,1,2,0,2.85.48,3.19,1,2.33,3.59-10.6,19-27.63,23a41.28,41.28,0,0,1-18.06,0,17.06,17.06,0,0,1-3.19-8,18.29,18.29,0,0,1,3.19-12c3.49-5.42,6.83-5.18,8.5-9,1.15-2.64,1.38-6.92-3.19-14,11.82-4.44,15.68-2.21,17-1C639,960.1,639.7,960.89,641.71,968.63Z" style="fill:url(#linear-gradient-23)"/>
        <path d="M501.32,968.35c2.11,7.45,2,8.69,3.47,10,1.82,1.63,5.69,3.06,15.07,1,2.22,0,3.1.48,3.47,1,2.55,3.59-11.56,19-30.13,23a48.78,48.78,0,0,1-19.69,0,16.26,16.26,0,0,1-3.48-8c-.74-5.86,2.34-10.38,3.48-12,3.8-5.41,7.45-5.18,9.27-9,1.25-2.64,1.5-6.92-3.48-14,12.89-4.44,17.09-2.21,18.54-1C498.4,959.82,499.12,960.62,501.32,968.35Z" style="fill:url(#linear-gradient-24)"/>
        <ellipse class="cls-28" cx="523" cy="632.5" rx="7" ry="12.5" transform="translate(-288.15 507.52) rotate(-41.65)"/>
        <ellipse class="cls-28" cx="738" cy="383.5" rx="10" ry="15.5"/>
        <path d="M654.78,457c.77-1.29,8.57.63,15.36,4,6,3,5.74,4.35,12.06,8A56.75,56.75,0,0,0,702,476c5.56.84,10.22,1.48,14.26-1,3.1-1.91,4.46-4.81,5.48-7,2-4.37,1.87-7.62,2.19-12,.64-8.43,2.2-8.51,3.29-17,.93-7.15.23-10.26,0-19a197.6,197.6,0,0,1,1.1-26c.87-.25,9.42-2.63,15.36,2a12,12,0,0,1,3.29,4c-.21,5.81-.4,14.87,0,26,.35,9.83,1,16.95,2.19,36,1.33,21.36,1.32,25.32-1.1,31-1.37,3.24-5.37,12.64-15.35,18-8.58,4.61-15.42,2.92-37.29,3-12,0-21.66.6-27.42,1a154.46,154.46,0,0,0,2.19-25c.08-14.88-2.1-19.06-3.29-21C662,461.16,654,458.35,654.78,457Z" style="fill:#9c272d"/>
        <path d="M526.65,459c-4.67,4.9-11.08,11.73-18.55,20-12,13.31-19.39,22.19-31.65,37-20.11,24.3-23.62,29.65-26.19,38-2.24,7.3-5.21,16.93-1.09,27,4,9.75,11.86,13.21,29.47,25,8.45,5.66,20.22,14,33.82,25l10.92-8a187.5,187.5,0,0,1-18.56-19c-8.93-10.58-13.44-16-15.27-24-2.31-10,.56-18.34,2.18-23,1.38-4,7.52-21.69,24-30,4.34-2.19,8-3,10.91-7,2.68-3.71,2.48-7.17,2.18-16-.8-23.36-.06-18.41-1.09-32C527.32,466.49,526.92,462,526.65,459Z" style="fill:#cf272d"/>
        <path d="M528.65,645a87.84,87.84,0,0,0-8.78,19c-4.68,14.16-4.68,25.91-4.38,37,.65,24.57,2.66,41.37,3.29,49,1.62,19.83-2.56,21.61-16.46,85-3.55,16.23-9.49,44.44-15.35,79-3.33,19.65-5.84,36.63-7.68,50,5.83,10.11,16.95,14.65,25.23,12,6-1.93,9-7.17,9.87-9,3.52-8.15,8.79-21,14.26-37,9.75-28.59,10.61-39.51,21.93-84,15.21-59.75,16.6-51.61,18.65-70,1.82-16.36,2.3-37,12.07-56,1.28-2.51,11-21,11-21h0l13.17,2c-.62,8.39-1.27,20.86-1.1,36,.25,21.81,2,31.31,3.29,50,2.13,31.45-1.15,30.39,0,71,.88,31.29,3.46,54.18,4.39,62,2.59,21.84,5.92,40.23,8.77,54,2.67,1.52,11.34,6,18.65,3,5.4-2.26,7.58-7.64,8.77-11,8.36-23.68,3-48.69,6.58-81,1.19-10.76,1.81-8.3,3.29-21,3-25.75.75-38.54,1.1-57,.32-16.93,3.14-30.29,8.78-57,8.29-39.32,13.88-44.35,13.16-65-.55-15.83-1.12-31.9-12.07-45C638.75,603.77,549,614.3,528.65,645Z" style="fill:#f6921e"/>
        <path d="M528.24,644.65a87.84,87.84,0,0,0-8.78,19c-4.68,14.16-4.68,25.91-4.38,37,.65,24.57,2.66,41.37,3.29,49,1.62,19.83-2.56,21.61-16.46,85-3.55,16.23-9.49,44.44-15.35,79-3.33,19.65-5.84,36.63-7.68,50,5.83,10.11,16.95,14.65,25.23,12,6-1.93,9-7.17,9.87-9,3.52-8.16,8.79-21,14.26-37,9.75-28.59,10.61-39.51,21.94-84,15.2-59.75,16.59-51.61,18.64-70,1.82-16.36,2.3-37,12.07-56,1.29-2.51,11-21,11-21h0l13.17,2c-.61,8.39-1.27,20.86-1.1,36,.25,21.81,2,31.31,3.29,50,2.13,31.45-1.15,30.38,0,71,.88,31.29,3.46,54.18,4.39,62,2.59,21.84,5.92,40.23,8.77,54,2.67,1.51,11.34,6.05,18.65,3,5.4-2.26,7.59-7.64,8.77-11,8.36-23.68,3-48.69,6.58-81,1.19-10.76,1.81-8.3,3.29-21,3-25.75.75-38.54,1.1-57,.32-16.93,3.14-30.29,8.78-57,8.29-39.33,13.88-44.35,13.16-65-.55-15.83-1.12-31.9-12.07-45C638.34,603.42,548.54,614,528.24,644.65Z" style="fill:url(#linear-gradient-25)"/>
        <path class="cls-33" d="M630.65,451c11.68,6.12,17,1.41,26.33,7,7.59,4.56,10.63,11.67,12.06,15,2.87,6.69,2.29,11.24,0,32-2.68,24.34-3,28.5-3.29,34-.51,11.31-.18,20.1,0,24,.15,3.08.51,9.58,3.29,31,2.16,16.65,2.91,20.15,4.39,33,2.61,22.6,2,26.54,1.1,30-.86,3.22-4.19,15.74-15.36,24-5.14,3.81-12.2,6.89-46.07,7-33.71.11-50.82,0-63.61-8a57,57,0,0,1-20.84-23c-4.12-8.46-4.61-15.51-3.29-40,2.47-46.19,5.56-46.24,3.29-62-1-7.16-3-16.72-4.39-33-1-12.25-.19-10.68-1.1-18-2.56-20.58-8.33-27-4.38-37,1.15-2.91,3.65-7.41,9.87-12a152,152,0,0,0,24.13-5A148.93,148.93,0,0,0,567,445c8.08-3.34,7.12-3.84,11-5,5.82-1.75,12-1.19,24.13,0,6.68.66,10.08,1,13.16,2C623,444.48,623.93,447.48,630.65,451Z"/>
        <path class="cls-33" d="M740.6,406.51c-.34,6.63-.56,13.25-.41,19.86s.56,13.19,1.23,19.76,1.55,13.14,2.6,19.7c.49,3.29,1,6.58,1.18,9.92a30.26,30.26,0,0,1-1,10,25.82,25.82,0,0,1-4.78,8.95,38.4,38.4,0,0,1-7.34,7,33.55,33.55,0,0,1-4.34,2.74,32.24,32.24,0,0,1-4.75,2,25,25,0,0,1-10.22,1.16,28,28,0,0,1-5.07-.94,30.38,30.38,0,0,0-4.72-1,57.94,57.94,0,0,0-9.78-.26,190.86,190.86,0,0,0-19.72,2.19.09.09,0,0,1-.11-.09.09.09,0,0,1,.07-.11,128.63,128.63,0,0,1,19.65-3.55,59.72,59.72,0,0,1,10.1-.1,28,28,0,0,1,5,.9,26.71,26.71,0,0,0,9.47.75,28.33,28.33,0,0,0,4.67-1,31.29,31.29,0,0,0,4.49-1.73,33.17,33.17,0,0,0,4.11-2.5,39.37,39.37,0,0,0,7.21-6.49,25.58,25.58,0,0,0,5-8.27,26.56,26.56,0,0,0,1.31-9.65,71.09,71.09,0,0,0-1.12-9.84c-.58-3.26-1.27-6.51-1.92-9.77s-1.22-6.54-1.7-9.85a138.07,138.07,0,0,1,.64-39.83.1.1,0,0,1,.12-.08A.09.09,0,0,1,740.6,406.51Z"/>
        <path d="M630.42,450.5c11.68,6.12,17,1.42,26.33,7,7.59,4.56,10.63,11.67,12.06,15,2.87,6.69,2.29,11.25,0,32-2.68,24.34-3,28.51-3.29,34-.51,11.32-.18,20.1,0,24,.15,3.09.51,9.59,3.29,31,2.16,16.66,2.9,20.15,4.39,33,2.61,22.61,2,26.54,1.09,30-.85,3.23-4.18,15.74-15.35,24-5.15,3.81-12.2,6.9-46.07,7-33.71.11-50.82,0-63.61-8a56.9,56.9,0,0,1-20.84-23c-4.12-8.46-4.61-15.51-3.29-40,2.47-46.18,5.55-46.23,3.29-62-1-7.16-3-16.72-4.39-33-1-12.25-.19-10.68-1.1-18-2.56-20.58-8.33-27-4.39-37,1.16-2.91,3.66-7.4,9.88-12a152.22,152.22,0,0,0,24.13-5,143.25,143.25,0,0,0,14.26-5c8.08-3.33,7.12-3.84,11-5,5.83-1.75,12-1.19,24.13,0,6.69.66,10.09,1,13.17,2C622.73,444,623.69,447,630.42,450.5Z" style="fill:url(#linear-gradient-26)"/>
        <path d="M627.36,357c3.29,1.66,10.26,5.19,13.16,12,2,4.72.38,7,3.3,16a15.13,15.13,0,0,1,1.09,6c-.18,3.23-1.52,4.4-2.19,8-.57,3.05.15,3.49,0,7-.18,4.21-1.37,7.18-3.29,12-2.26,5.66-3.39,8.49-5.49,10-4.49,3.25-10.67,2.36-13.16,2-5.15-.74-6.56-2.5-17.55-8-6.43-3.22-9.65-4.84-13.16-6-11-3.64-14.3-1.07-18.65-4-10-6.74-3.63-27.9-3.29-29a40.54,40.54,0,0,1,18.65-24C598.59,352.25,614.85,350.67,627.36,357Z" style="fill:#a57c52"/>
        <path d="M627.46,357.13c3.29,1.67,10.25,5.19,13.16,12,2,4.72.38,7,3.29,16a15,15,0,0,1,1.1,6c-.18,3.23-1.52,4.4-2.19,8-.57,3.05.14,3.49,0,7-.18,4.22-1.37,7.19-3.29,12-2.27,5.66-3.4,8.49-5.49,10-4.49,3.25-10.67,2.36-13.16,2-5.15-.74-6.56-2.49-17.55-8-6.44-3.22-9.65-4.83-13.16-6-11-3.64-14.31-1.07-18.65-4-10-6.73-3.63-27.9-3.29-29a40.57,40.57,0,0,1,18.65-24C598.68,352.38,615,350.8,627.46,357.13Z" style="fill:url(#linear-gradient-27)"/>
        <path d="M667.74,687.56l-12.66,69.75c-1,5.78-1.93,11.58-2.72,17.42a175.53,175.53,0,0,0-1.56,17.57c-.06,3-.09,5.9,0,8.86l0,8.89c0,5.94-.12,11.86-.19,17.79s-.27,11.88-.67,17.83l-.6,8.83-.46,8.82Q648,881,648,898.68c-.08,11.79-.25,23.72-1.17,35.57s-2.45,23.64-4.06,35.39l-.09.63-.47.29a14.6,14.6,0,0,1-4.7,1.81,13.85,13.85,0,0,1-5,.1,13.28,13.28,0,0,1-8.21-4.8.25.25,0,0,1,.36-.34,13,13,0,0,0,8,3.55,12.09,12.09,0,0,0,4.28-.54,13.73,13.73,0,0,0,3.81-1.9l-.56.92c.29-5.91.65-11.8,1-17.69.22-2.94.34-5.89.47-8.84s.28-5.88.36-8.83c.17-5.89.34-11.77.38-17.66s.13-11.8.2-17.73q.38-17.8,1.88-35.58c.47-5.91,1.21-11.86,2.07-17.71s1.38-11.68,1.83-17.58l.33-4.42.24-4.42q.21-4.42.25-8.85c.08-5.91-.22-11.8-.38-17.75a226.32,226.32,0,0,1,1.89-35.67c.83-5.9,1.93-11.74,3.15-17.55s2.5-11.58,3.8-17.36c2.71-11.55,5.75-23,9.53-34.28a.25.25,0,0,1,.31-.16A.25.25,0,0,1,667.74,687.56Z" style="fill:#faaf3b"/>
        <path d="M653.73,465.41a65,65,0,0,1,6.34,36.7c-.39,3.15-1,6.26-1.65,9.31l-2.1,9c-1.34,6-2.6,12-3.59,18a160.76,160.76,0,0,0-2.1,18.19,83.49,83.49,0,0,0,1,18.28l.42,2.25.53,2.23c.32,1.49.83,2.93,1.29,4.38a53.11,53.11,0,0,0,3.84,8.28c1.49,2.68,3.15,5.3,4.65,8.06a61.18,61.18,0,0,1,3.83,8.64c.49,1.5,1,3,1.43,4.51l.63,2.28c.19.77.35,1.53.52,2.3.73,3.09,1.27,6.09,1.79,9.2a71.83,71.83,0,0,1,.86,19,38.48,38.48,0,0,1-2.18,9.59,28.35,28.35,0,0,1-5,8.74,22.48,22.48,0,0,1-8.1,6.31,46.82,46.82,0,0,1-9.26,3.19c-3.11.74-6.22,1.29-9.32,1.76s-6.21.85-9.33,1.11-6.24.46-9.37.59-6.24.12-9.37.07a175.65,175.65,0,0,1-37-4.65.25.25,0,0,1-.19-.3.26.26,0,0,1,.27-.2,259.64,259.64,0,0,0,36.84,1.21c6.11-.27,12.21-.75,18.25-1.54a152,152,0,0,0,17.89-3.22,45.56,45.56,0,0,0,8.23-2.82A18.35,18.35,0,0,0,660.2,661a23.07,23.07,0,0,0,4.33-7.14,33.32,33.32,0,0,0,2.15-8.37,74.7,74.7,0,0,0-.14-17.92,118.08,118.08,0,0,0-3-18A58.36,58.36,0,0,0,660.4,601c-.65-1.37-1.32-2.75-2-4.11s-1.47-2.71-2.18-4.1a65.86,65.86,0,0,1-3.79-8.59,67.88,67.88,0,0,1-2.39-9.06,122.15,122.15,0,0,1-1.39-37.35,146.57,146.57,0,0,1,3.4-18.41c1.46-6.08,3.23-11.92,4.22-17.86,2.07-11.85.76-24.21-3-36a.25.25,0,0,1,.46-.18Z" style="fill:#ec1c24"/>
        <path d="M632,352c-16-6.32-31.52-2-35-1a58.41,58.41,0,0,0-25,15c-11.79,12.35-14.25,26.77-16,37-2,11.46-.86,17.37-1,26-.62,39.77-26.26,65.75-21,70,5,4.06,27.26-20.68,32-17,5,3.91-10.48,39.1-37,71-25.4,30.55-52.86,48.44-50,53,2.12,3.38,17.47-8.52,38-4,13.1,2.88,13.4,9.16,28,13,4.93,1.3,23.48,6.17,39-4,13.93-9.12,17.37-25.08,18-28,3.77-17.47-5.37-23.41-6-49-.36-14.88,2.21-34.05,8-35,6.74-1.11,13.9,23.13,18,22,3.16-.87-7.34-22.37-3-49,3.26-19.95,11.19-20.65,11-38s-8.07-23.3-3-35c3.64-8.4,10.42-11.39,10-20-.27-5.65-3.31-9.45-1-13s7.63-2.77,8-5C644.51,357.94,637.07,354,632,352Z" style="fill:#227173"/>
        <path d="M632.41,352.38c-16.06-6.32-31.52-2-35-1a58.44,58.44,0,0,0-25,15c-11.79,12.35-14.25,26.77-16,37-2,11.47-.87,17.37-1,26-.62,39.77-26.26,65.76-21,70,5,4.06,27.25-20.68,32-17,5,3.91-10.49,39.11-37,71-25.4,30.55-52.86,48.44-50,53,2.12,3.38,17.47-8.51,38-4,13.09,2.88,13.4,9.17,28,13,4.93,1.3,23.48,6.17,39-4,13.93-9.12,17.37-25.08,18-28,3.77-17.47-5.38-23.41-6-49-.37-14.88,2.21-34.05,8-35,6.74-1.11,13.9,23.13,18,22,3.16-.87-7.35-22.37-3-49,3.25-19.95,11.19-20.65,11-38s-8.07-23.3-3-35c3.64-8.4,10.41-11.39,10-20-.27-5.65-3.31-9.45-1-13s7.63-2.77,8-5C644.92,358.32,637.48,354.38,632.41,352.38Z" style="fill:url(#linear-gradient-28)"/>
        <path class="cls-41" d="M567.44,533a58.67,58.67,0,0,1-5.3,12.34A57.15,57.15,0,0,1,532.5,570.5a55.85,55.85,0,0,0,20.22-15.77A54.65,54.65,0,0,0,563.56,532a2,2,0,0,1,3.92.85s0,.09,0,.14Z"/>
        <path class="cls-41" d="M592.5,491.5a102.42,102.42,0,0,0-2.86,12.42,82.2,82.2,0,0,0-1.07,12.6c-.42,8.42.88,16.81,2.45,25.15.79,4.18,1.58,8.37,2.45,12.52.44,2.08.89,4.15,1.38,6.22s1,4.12,1.4,6.29a22.71,22.71,0,0,1,.16,6.63,32.32,32.32,0,0,1-.44,3.24c-.16,1.08-.43,2.14-.69,3.2a44.13,44.13,0,0,1-5.17,12,42.18,42.18,0,0,1-3.84,5.29c-.72.84-1.47,1.62-2.22,2.39s-1.54,1.52-2.34,2.25a38.34,38.34,0,0,1-10.9,7.2,24.16,24.16,0,0,1-6.45,1.63,18.49,18.49,0,0,1-6.7-.54,16.36,16.36,0,0,1-6-3.07,40.74,40.74,0,0,1-4.75-4.51c-1.45-1.57-2.87-3.12-4.37-4.58a35.06,35.06,0,0,0-4.81-3.9,28.76,28.76,0,0,0-11.46-4.34,37.79,37.79,0,0,0-12.47-.16,65.62,65.62,0,0,0-12.32,3.11q2.91-1.32,5.94-2.4a56.91,56.91,0,0,1,6.2-1.74,39,39,0,0,1,13-.78,27.6,27.6,0,0,1,6.38,1.65c1,.35,2,.88,3,1.33.51.22,1,.54,1.44.8s1,.53,1.42.86a37,37,0,0,1,5.1,4.13c1.56,1.52,3,3.1,4.45,4.66,2.85,3.08,5.89,6,9.8,7a16.35,16.35,0,0,0,6,.48,21.7,21.7,0,0,0,5.89-1.49,36.62,36.62,0,0,0,10.31-6.82c.77-.71,1.53-1.43,2.26-2.18s1.47-1.51,2.13-2.29a41.25,41.25,0,0,0,3.66-5,42.06,42.06,0,0,0,4.93-11.42,31,31,0,0,0,.66-3,29.21,29.21,0,0,0,.42-3.08,20.42,20.42,0,0,0-.14-6.1c-.36-2-.9-4.1-1.38-6.18s-.95-4.16-1.39-6.26c-.87-4.19-1.66-8.36-2.45-12.56s-1.52-8.42-2-12.69a71,71,0,0,1,5.44-37.85Z"/>
        <path class="cls-41" d="M598.53,356.8a40.61,40.61,0,0,0-8.91,2.34,33.68,33.68,0,0,0-8,4.31A29.77,29.77,0,0,0,571,377.6a40.25,40.25,0,0,0-2,8.71,74.06,74.06,0,0,0-.44,9.1,49.45,49.45,0,0,0,.62,8.93,52,52,0,0,0,2.49,8.62,46.27,46.27,0,0,1,2.29,9.59,60.48,60.48,0,0,1,.38,9.78,58.86,58.86,0,0,1-4,19,69.85,69.85,0,0,1-4.11,8.75,73.19,73.19,0,0,1-5.14,8.1,61.83,61.83,0,0,1-13.34,13.53.31.31,0,0,1-.42-.44,110.49,110.49,0,0,0,10.2-15.35c1.43-2.68,2.76-5.38,4-8.19a87.63,87.63,0,0,0,3.2-8.42,82.67,82.67,0,0,0,3.72-17.4,53.78,53.78,0,0,0,.26-8.87,37.18,37.18,0,0,0-1.58-8.64c-.43-1.47-.89-3-1.31-4.56a41.56,41.56,0,0,1-1-4.85,54.51,54.51,0,0,1-.26-9.7,77.28,77.28,0,0,1,1-9.5,42.87,42.87,0,0,1,2.68-9.31,32.18,32.18,0,0,1,12.37-14.57,38.43,38.43,0,0,1,17.91-5.72.3.3,0,0,1,.32.28A.3.3,0,0,1,598.53,356.8Z"/>
        <path class="cls-41" d="M631.68,358.67a17.71,17.71,0,0,0-4.32,7.51,9.48,9.48,0,0,0-.09,4.17,12.72,12.72,0,0,0,1.74,3.88,9,9,0,0,1,1.37,4.64,7.46,7.46,0,0,1-.41,2.51,9.38,9.38,0,0,1-1.19,2.21,43.82,43.82,0,0,1-3,3.46,26.14,26.14,0,0,0-2.67,3.35c-.19.29-.4.59-.56.88s-.32.55-.44.87a12.74,12.74,0,0,0-.65,1.92,26.67,26.67,0,0,0-.7,4.2c-.3,2.88-.36,5.84-.4,8.8,0,5.92,0,11.93.16,17.83.1,3,.2,6,.24,9s.11,6,.12,9-.07,6-.33,9.11a46,46,0,0,1-.67,4.69,37.57,37.57,0,0,1-1.3,4.62,28,28,0,0,1-2.07,4.45c-.84,1.43-1.74,2.65-2.42,3.77a22.17,22.17,0,0,0-2.67,7.67c-1,5.55-.22,11.45,1.34,17.21a.25.25,0,0,1-.46.18,33.18,33.18,0,0,1-4.38-17.77,28.17,28.17,0,0,1,.65-4.73,21,21,0,0,1,1.64-4.68c.76-1.5,1.58-2.72,2.16-3.92a21.55,21.55,0,0,0,1.46-3.76,37.14,37.14,0,0,0,1.53-8.2c.26-2.87.42-5.82.57-8.77.33-5.94.54-11.86.59-17.83s.31-11.95.6-18c.16-3,.34-6,.78-9a30.6,30.6,0,0,1,1-4.59,14.92,14.92,0,0,1,.89-2.28c.16-.37.41-.73.61-1.1s.46-.65.68-1a28.81,28.81,0,0,1,3.1-3.48c1.08-1.07,2.17-2.05,3-3.11a6.35,6.35,0,0,0,.47-7.42,14.24,14.24,0,0,1-1.65-4.36,10.74,10.74,0,0,1,.34-4.69,18.52,18.52,0,0,1,5-7.57.24.24,0,0,1,.35,0A.24.24,0,0,1,631.68,358.67Z"/>
        <path d="M653.5,464.91a65,65,0,0,1,6.34,36.71c-.39,3.14-1,6.25-1.65,9.3l-2.1,9c-1.35,6-2.6,11.95-3.59,18a162.93,162.93,0,0,0-2.11,18.18,84.12,84.12,0,0,0,1,18.28l.41,2.26.54,2.22a44,44,0,0,0,1.29,4.38,52.73,52.73,0,0,0,3.84,8.29c1.49,2.67,3.14,5.3,4.65,8.05a61.18,61.18,0,0,1,3.83,8.64c.49,1.5,1,3,1.43,4.52L668,615c.19.76.35,1.53.52,2.29.73,3.09,1.27,6.09,1.79,9.2a71.45,71.45,0,0,1,.85,19,37.69,37.69,0,0,1-2.18,9.6,28.27,28.27,0,0,1-5,8.73,22.51,22.51,0,0,1-8.1,6.32,48.38,48.38,0,0,1-9.26,3.19c-3.11.74-6.22,1.28-9.32,1.75s-6.21.85-9.33,1.12-6.24.46-9.37.59-6.25.12-9.37.06a174.92,174.92,0,0,1-37-4.65.25.25,0,0,1-.19-.3.26.26,0,0,1,.27-.19,259.63,259.63,0,0,0,36.84,1.2c6.11-.27,12.2-.75,18.25-1.53a151.49,151.49,0,0,0,17.88-3.23,46.17,46.17,0,0,0,8.24-2.81,18.44,18.44,0,0,0,6.45-4.91,23.32,23.32,0,0,0,4.33-7.15,33.36,33.36,0,0,0,2.15-8.36,74.69,74.69,0,0,0-.14-17.92,118.21,118.21,0,0,0-3-18,59.42,59.42,0,0,0-3.14-8.5c-.65-1.38-1.32-2.75-2-4.12s-1.47-2.71-2.19-4.1a67.67,67.67,0,0,1-3.78-8.58,68.43,68.43,0,0,1-2.39-9.07,121.77,121.77,0,0,1-1.39-37.34,144.14,144.14,0,0,1,3.4-18.41c1.45-6.09,3.23-11.93,4.22-17.86,2.07-11.86.76-24.22-3-36a.25.25,0,0,1,.16-.32A.26.26,0,0,1,653.5,464.91Z" style="fill:url(#Orchid-2)"/>
        <path d="M526.3,458.6c-4.67,4.91-11.08,11.73-18.55,20-12,13.32-19.38,22.19-31.64,37-20.12,24.31-23.62,29.65-26.19,38-2.25,7.31-5.21,16.93-1.09,27,4,9.75,11.85,13.22,29.46,25,8.46,5.67,20.23,14,33.83,25l10.91-8a185.1,185.1,0,0,1-18.55-19c-8.94-10.57-13.44-16-15.28-24-2.31-10,.57-18.33,2.18-23,1.39-4,7.52-21.69,24-30,4.34-2.18,8.05-3,10.91-7,2.69-3.7,2.49-7.17,2.18-16-.79-23.36-.06-18.4-1.09-32C527,466.1,526.58,461.58,526.3,458.6Z" style="fill:url(#linear-gradient-29)"/>
        <path d="M655.06,456.55c.77-1.28,8.57.64,15.36,4,6,3,5.74,4.36,12.06,8a56.75,56.75,0,0,0,19.75,7c5.56.85,10.21,1.49,14.25-1,3.11-1.9,4.47-4.81,5.49-7,2-4.36,1.86-7.62,2.19-12,.63-8.42,2.19-8.51,3.29-17,.93-7.15.23-10.26,0-19a194.14,194.14,0,0,1,1.1-26c.87-.25,9.42-2.62,15.35,2a12.15,12.15,0,0,1,3.3,4c-.22,5.81-.4,14.88,0,26,.35,9.84,1,16.95,2.19,36,1.33,21.36,1.32,25.32-1.1,31-1.37,3.24-5.37,12.64-15.35,18-8.58,4.61-15.42,2.93-37.3,3-12,.05-21.65.6-27.42,1a154.65,154.65,0,0,0,2.2-25c.07-14.88-2.1-19.06-3.29-21C662.31,460.71,654.26,457.9,655.06,456.55Z" style="fill:url(#linear-gradient-30)"/>
        <path d="M567.55,533.33a58.67,58.67,0,0,1-5.3,12.34,57.15,57.15,0,0,1-29.64,25.16,55.76,55.76,0,0,0,20.22-15.77,54.81,54.81,0,0,0,6.77-10.78,55.67,55.67,0,0,0,4.08-11.95,2,2,0,1,1,3.91.85c0,.05,0,.09,0,.14Z" style="fill:url(#Orchid-3)"/>
        <path d="M592.61,491.83a102.42,102.42,0,0,0-2.86,12.42,82.2,82.2,0,0,0-1.07,12.6c-.41,8.42.88,16.81,2.45,25.15.79,4.18,1.59,8.37,2.45,12.52q.66,3.12,1.38,6.22c.48,2.07,1,4.12,1.4,6.29a22.71,22.71,0,0,1,.17,6.63c-.12,1.08-.23,2.17-.45,3.24s-.43,2.14-.69,3.2a44.13,44.13,0,0,1-5.17,12,42.18,42.18,0,0,1-3.84,5.29c-.71.84-1.47,1.62-2.22,2.39s-1.54,1.52-2.34,2.25a38.34,38.34,0,0,1-10.9,7.2,24.16,24.16,0,0,1-6.45,1.63,18.51,18.51,0,0,1-6.7-.54,16.36,16.36,0,0,1-6-3.07A40.74,40.74,0,0,1,547,602.7c-1.45-1.57-2.87-3.12-4.36-4.58a35.76,35.76,0,0,0-4.82-3.9,28.76,28.76,0,0,0-11.46-4.34,37.79,37.79,0,0,0-12.47-.16,65.81,65.81,0,0,0-12.32,3.11q2.91-1.32,5.94-2.4a57.55,57.55,0,0,1,6.2-1.74,39.09,39.09,0,0,1,13-.78,27.65,27.65,0,0,1,6.37,1.65c1,.35,2,.88,3,1.33.51.22,1,.54,1.45.8s1,.53,1.41.86a37,37,0,0,1,5.1,4.13c1.56,1.52,3,3.1,4.45,4.66,2.85,3.08,5.89,6,9.8,7a16.35,16.35,0,0,0,6,.48,21.7,21.7,0,0,0,5.89-1.49,36.81,36.81,0,0,0,10.32-6.82c.77-.71,1.52-1.43,2.25-2.18s1.47-1.51,2.13-2.29a40.22,40.22,0,0,0,3.66-5,42.06,42.06,0,0,0,4.93-11.42,31,31,0,0,0,.66-3c.21-1,.32-2,.43-3.08a20.75,20.75,0,0,0-.15-6.1c-.36-2-.9-4.1-1.38-6.18s-.94-4.16-1.39-6.26c-.87-4.19-1.66-8.36-2.45-12.56s-1.52-8.42-2-12.69a71,71,0,0,1,5.44-37.85Z" style="fill:url(#Orchid-4)"/>
        <path d="M598.64,357.13a40.61,40.61,0,0,0-8.91,2.34,33.68,33.68,0,0,0-8,4.31,29.77,29.77,0,0,0-10.62,14.15,39.65,39.65,0,0,0-2,8.71,76.08,76.08,0,0,0-.45,9.1,50.37,50.37,0,0,0,.62,8.93,53,53,0,0,0,2.49,8.62,46.27,46.27,0,0,1,2.29,9.59,59.52,59.52,0,0,1-3.62,28.79,68.41,68.41,0,0,1-4.1,8.75,74.78,74.78,0,0,1-5.15,8.1,61.61,61.61,0,0,1-13.34,13.53.3.3,0,0,1-.42-.07.32.32,0,0,1,0-.37,109.6,109.6,0,0,0,10.2-15.35c1.43-2.68,2.76-5.38,4-8.19a85.05,85.05,0,0,0,3.2-8.42,82.67,82.67,0,0,0,3.72-17.4,53.78,53.78,0,0,0,.26-8.87,37.16,37.16,0,0,0-1.57-8.64c-.43-1.47-.9-3-1.32-4.56a39.56,39.56,0,0,1-.94-4.85,52.69,52.69,0,0,1-.26-9.7,75.35,75.35,0,0,1,1-9.5,42.9,42.9,0,0,1,2.69-9.31,32.15,32.15,0,0,1,12.36-14.57,38.43,38.43,0,0,1,17.91-5.72.3.3,0,0,1,.32.28A.3.3,0,0,1,598.64,357.13Z" style="fill:url(#Orchid-5)"/>
        <path d="M631.79,359a17.71,17.71,0,0,0-4.32,7.51,9.48,9.48,0,0,0-.09,4.17,12.72,12.72,0,0,0,1.74,3.88,8.92,8.92,0,0,1,1.37,4.64,7.22,7.22,0,0,1-.41,2.51,9.38,9.38,0,0,1-1.19,2.21,43.82,43.82,0,0,1-3,3.46,27,27,0,0,0-2.67,3.35c-.18.29-.4.59-.56.88a8.79,8.79,0,0,0-.43.87,11.73,11.73,0,0,0-.66,1.92,26.67,26.67,0,0,0-.7,4.2c-.3,2.88-.36,5.84-.39,8.8,0,5.92,0,11.93.15,17.83.1,3,.2,6,.24,9s.11,6,.12,9-.07,6-.33,9.11A43.33,43.33,0,0,1,620,457a39.46,39.46,0,0,1-1.31,4.62,27.12,27.12,0,0,1-2.07,4.45c-.83,1.43-1.74,2.65-2.42,3.77a22.17,22.17,0,0,0-2.67,7.67c-1,5.55-.22,11.45,1.34,17.21a.25.25,0,0,1-.17.31.26.26,0,0,1-.29-.13A33.27,33.27,0,0,1,608,477.15a28.17,28.17,0,0,1,.65-4.73,20.57,20.57,0,0,1,1.65-4.68c.75-1.5,1.57-2.72,2.15-3.92a22.41,22.41,0,0,0,1.47-3.76,38.33,38.33,0,0,0,1.53-8.2c.25-2.87.41-5.82.56-8.77.33-5.94.54-11.86.59-17.83s.31-11.95.6-18c.16-3,.34-6,.78-9.05a30.6,30.6,0,0,1,1-4.59,14.92,14.92,0,0,1,.89-2.28,12.21,12.21,0,0,1,.62-1.1c.22-.35.45-.65.68-1a27.91,27.91,0,0,1,3.09-3.48,41.93,41.93,0,0,0,3-3.11,6.37,6.37,0,0,0,.48-7.42,14,14,0,0,1-1.66-4.36,10.59,10.59,0,0,1,.35-4.69,18.39,18.39,0,0,1,5-7.57.24.24,0,0,1,.35,0A.24.24,0,0,1,631.79,359Z" style="fill:url(#Orchid-6)"/>
    </g>
</svg>
